# 3ds Max Wavefront OBJ Exporter v0.99 - (c)2007 guruware
# File Created: 03.12.2023 03:14:13

mtllib exitdoor.mtl

#
# object door
#

v  14.8395 30.0000 -685.1275
v  10.2830 27.4931 -685.1275
v  -10.7943 27.4931 -685.1275
v  -15.3260 30.0000 -685.1275
v  -15.3260 -0.0000 -685.1275
v  -10.7943 21.8605 -685.1275
v  14.8395 -0.0000 -685.1275
v  10.2830 21.8605 -685.1275
v  -15.3260 30.0000 -684.2578
v  -10.7943 21.8605 -684.2578
v  -10.7943 27.4931 -684.2578
v  -15.3260 -0.0000 -684.2578
v  10.2830 21.8605 -684.2578
v  14.8395 -0.0000 -684.2578
v  14.8395 30.0000 -684.2578
v  10.2830 27.4931 -684.2578
v  14.9098 1.3277 -685.0907
v  14.9098 1.3277 -684.1133
v  14.6589 1.3277 -684.1599
v  15.1108 3.0242 -683.9573
v  15.1108 0.9875 -683.9573
v  14.1994 0.9875 -684.0920
v  14.1994 3.0242 -684.0920
v  14.9098 3.0234 -685.0907
v  14.6589 3.0234 -685.0907
v  14.6589 3.0234 -684.1599
v  14.6589 1.3277 -685.0907
v  14.7256 0.9875 -684.1698
v  14.5846 0.9875 -683.8795
v  14.9098 3.0234 -684.1133
v  14.0584 0.9875 -683.8016
v  14.0584 3.0242 -683.8016
v  14.9698 3.0242 -683.6669
v  14.9698 0.9875 -683.6669
v  14.4436 0.9875 -683.5891
v  14.4436 3.0242 -683.5891
v  -15.0762 12.3656 -684.4369
v  -15.0762 12.3656 -684.9688
v  -15.3733 12.3656 -684.9688
v  -15.3733 12.3656 -684.4369
v  -15.3733 9.7913 -684.4369
v  -15.3733 9.7913 -684.9688
v  14.9098 20.6975 -685.0907
v  14.9098 20.6975 -684.1133
v  14.6589 20.6975 -684.1599
v  15.1108 22.3940 -683.9573
v  15.1108 20.3573 -683.9573
v  14.1994 20.3573 -684.0920
v  14.1994 22.3940 -684.0920
v  14.9098 22.3932 -685.0907
v  14.6589 22.3932 -685.0907
v  14.6589 22.3932 -684.1599
v  14.6589 20.6975 -685.0907
v  14.7256 20.3573 -684.1698
v  14.5846 20.3573 -683.8795
v  14.9098 22.3932 -684.1133
v  14.0584 20.3573 -683.8016
v  14.0584 22.3940 -683.8016
v  14.9698 22.3940 -683.6669
v  14.9698 20.3573 -683.6669
v  14.4436 20.3573 -683.5891
v  14.4436 22.3940 -683.5891
v  -15.0762 9.7913 -684.9688
v  -15.0762 9.7913 -684.4369
v  10.2830 21.8605 -684.4508
v  10.2830 27.4931 -684.4508
v  -10.7943 27.4931 -684.4508
v  -10.7943 21.8605 -684.4508
v  10.2830 27.4931 -684.9549
v  10.2830 21.8605 -684.9549
v  -10.7943 27.4931 -684.9549
v  -10.7943 21.8605 -684.9549
v  -13.5162 12.8913 -685.0969
v  -11.4288 12.8913 -685.0969
v  -11.4288 12.8913 -685.3716
v  -13.5162 12.8913 -685.3716
v  -13.5162 9.0647 -685.3716
v  -13.5162 9.0647 -685.0969
v  -11.4288 9.0647 -685.3716
v  -11.4288 9.0647 -685.0969
v  -11.4288 12.8913 -684.0341
v  -11.4288 12.8913 -684.3088
v  -13.5162 12.8913 -684.3088
v  -13.5162 12.8913 -684.0341
v  -13.5162 9.0647 -684.0341
v  -13.5162 9.0647 -684.3088
v  -11.4288 9.0647 -684.3088
v  -11.4288 9.0647 -684.0341
# 88 vertices

vn 0.0000 0.0000 -1.0000
vn 0.0000 -0.0000 1.0000
vn 0.0000 1.0000 0.0000
vn 1.0000 0.0000 -0.0000
vn 0.0000 -1.0000 -0.0000
vn -1.0000 0.0000 -0.0000
vn 0.8151 0.0000 -0.5794
vn 0.7630 -0.0469 -0.6447
vn 0.7927 -0.0068 -0.6095
vn -0.1183 0.0160 -0.9929
vn -0.2588 0.0000 -0.9659
vn 0.0006 1.0000 -0.0018
vn 0.9795 0.0000 -0.2016
vn -0.9659 0.0000 -0.2588
vn 0.9659 -0.0000 0.2588
vn -0.7071 -0.0000 0.7071
vn 0.2588 -0.0000 0.9659
vn -0.0001 1.0000 -0.0015
vn -0.0029 1.0000 -0.0016
vn -0.0053 1.0000 -0.0014
vn 0.0003 1.0000 -0.0014
vn 0.0019 1.0000 -0.0024
vn 0.0016 1.0000 -0.0002
vn 0.2803 -0.0115 -0.9599
# 24 vertex normals

vt 0.2486 0.9964 0.0000
vt 0.2123 0.9477 0.0000
vt 0.0400 0.9477 0.0000
vt 0.0037 0.9965 0.0000
vt 0.0035 0.4682 0.0000
vt 0.0400 0.8643 0.0000
vt 0.2484 0.4681 0.0000
vt 0.2122 0.8642 0.0000
vt 0.2558 0.9965 0.0000
vt 0.2921 0.8643 0.0000
vt 0.2921 0.9477 0.0000
vt 0.2557 0.4681 0.0000
vt 0.4643 0.8642 0.0000
vt 0.5006 0.4681 0.0000
vt 0.5007 0.9964 0.0000
vt 0.4644 0.9477 0.0000
vt 0.7768 0.1140 0.0000
vt 0.7768 0.1269 0.0000
vt 0.5318 0.1260 0.0000
vt 0.5318 0.1131 0.0000
vt 0.5319 0.0904 0.0000
vt 0.5319 0.1033 0.0000
vt 0.0035 0.1014 0.0000
vt 0.0036 0.0885 0.0000
vt 0.7768 0.0913 0.0000
vt 0.7768 0.1042 0.0000
vt 0.0035 0.1241 0.0000
vt 0.0036 0.1112 0.0000
vt 0.6800 0.4145 0.0000
vt 0.6788 0.3914 0.0000
vt 0.6767 0.3938 0.0000
vt 0.7198 0.3855 0.0000
vt 0.6715 0.3857 0.0000
vt 0.6784 0.3498 0.0000
vt 0.6705 0.3565 0.0000
vt 0.7202 0.3562 0.0000
vt 0.4888 0.4243 0.0000
vt 0.4855 0.4251 0.0000
vt 0.4911 0.4469 0.0000
vt 0.7202 0.3267 0.0000
vt 0.6783 0.3266 0.0000
vt 0.6404 0.2786 0.0000
vt 0.6440 0.2849 0.0000
vt 0.6367 0.2849 0.0000
vt 0.7204 0.4173 0.0000
vt 0.7204 0.4137 0.0000
vt 0.6331 0.2786 0.0000
vt 0.7198 0.3902 0.0000
vt 0.6295 0.2849 0.0000
vt 0.6707 0.3639 0.0000
vt 0.7201 0.3636 0.0000
vt 0.7200 0.3782 0.0000
vt 0.6712 0.3785 0.0000
vt 0.6331 0.2912 0.0000
vt 0.6709 0.3712 0.0000
vt 0.7201 0.3709 0.0000
vt 0.6404 0.2912 0.0000
vt 0.4946 0.4472 0.0000
vt 0.4981 0.4574 0.0000
vt 0.4982 0.4502 0.0000
vt 0.4917 0.4610 0.0000
vt 0.4856 0.4500 0.0000
vt 0.4855 0.4573 0.0000
vt 0.6705 0.3921 0.0000
vt 0.6702 0.3492 0.0000
vt 0.5887 0.3169 0.0000
vt 0.5758 0.3169 0.0000
vt 0.5758 0.3129 0.0000
vt 0.5887 0.3129 0.0000
vt 0.7202 0.3497 0.0000
vt 0.6785 0.4162 0.0000
vt 0.5887 0.2507 0.0000
vt 0.5758 0.2507 0.0000
vt 0.4404 0.2843 0.0000
vt 0.4173 0.2832 0.0000
vt 0.4197 0.2811 0.0000
vt 0.4117 0.3243 0.0000
vt 0.4115 0.2759 0.0000
vt 0.3756 0.2832 0.0000
vt 0.3823 0.2752 0.0000
vt 0.3823 0.3249 0.0000
vt 0.4691 0.4243 0.0000
vt 0.4658 0.4251 0.0000
vt 0.4714 0.4469 0.0000
vt 0.3528 0.3251 0.0000
vt 0.3525 0.2832 0.0000
vt 0.6147 0.2786 0.0000
vt 0.6183 0.2849 0.0000
vt 0.6111 0.2849 0.0000
vt 0.4434 0.3246 0.0000
vt 0.4399 0.3246 0.0000
vt 0.6074 0.2786 0.0000
vt 0.4163 0.3242 0.0000
vt 0.6038 0.2849 0.0000
vt 0.3897 0.2753 0.0000
vt 0.3897 0.3248 0.0000
vt 0.4044 0.3245 0.0000
vt 0.4043 0.2757 0.0000
vt 0.6074 0.2912 0.0000
vt 0.3970 0.2755 0.0000
vt 0.3971 0.3246 0.0000
vt 0.6147 0.2912 0.0000
vt 0.4749 0.4472 0.0000
vt 0.4784 0.4574 0.0000
vt 0.4785 0.4502 0.0000
vt 0.4721 0.4610 0.0000
vt 0.4659 0.4500 0.0000
vt 0.4658 0.4573 0.0000
vt 0.4179 0.2749 0.0000
vt 0.3750 0.2749 0.0000
vt 0.5719 0.3129 0.0000
vt 0.5719 0.2507 0.0000
vt 0.3758 0.3250 0.0000
vt 0.4420 0.2828 0.0000
vt 0.5758 0.2467 0.0000
vt 0.5887 0.2467 0.0000
vt 0.3419 0.4582 0.0000
vt 0.3419 0.4610 0.0000
vt 0.2585 0.4607 0.0000
vt 0.2585 0.4579 0.0000
vt 0.2592 0.2856 0.0000
vt 0.3426 0.2860 0.0000
vt 0.2592 0.2828 0.0000
vt 0.3426 0.2831 0.0000
vt 0.2557 0.4578 0.0000
vt 0.2563 0.2856 0.0000
vt 0.3455 0.2860 0.0000
vt 0.3448 0.4582 0.0000
vt 0.4884 0.4147 0.0000
vt 0.4858 0.4147 0.0000
vt 0.4855 0.3313 0.0000
vt 0.4881 0.3313 0.0000
vt 0.6606 0.4141 0.0000
vt 0.6603 0.3306 0.0000
vt 0.6628 0.3306 0.0000
vt 0.6632 0.4141 0.0000
vt 0.6606 0.4166 0.0000
vt 0.4884 0.4173 0.0000
vt 0.4880 0.3287 0.0000
vt 0.6603 0.3281 0.0000
vt 0.5926 0.2507 0.0000
vt 0.5927 0.3129 0.0000
vt 0.7049 0.3196 0.0000
vt 0.6770 0.3196 0.0000
vt 0.6770 0.3130 0.0000
vt 0.7049 0.3129 0.0000
vt 0.7115 0.3129 0.0000
vt 0.7047 0.2204 0.0000
vt 0.7113 0.2204 0.0000
vt 0.6768 0.2205 0.0000
vt 0.6768 0.2138 0.0000
vt 0.7046 0.2138 0.0000
vt 0.6704 0.3130 0.0000
vt 0.6702 0.2205 0.0000
vt 0.7340 0.4105 0.0000
vt 0.7340 0.4172 0.0000
vt 0.7618 0.4173 0.0000
vt 0.7619 0.4106 0.0000
vt 0.7622 0.3181 0.0000
vt 0.7685 0.4107 0.0000
vt 0.7689 0.3182 0.0000
vt 0.7344 0.3114 0.0000
vt 0.7344 0.3180 0.0000
vt 0.7623 0.3115 0.0000
vt 0.7278 0.3180 0.0000
vt 0.7274 0.4105 0.0000
# 166 texture coords

o door
g door
usemtl door1
s off
f 1/1/1 2/2/1 3/3/1 
f 3/3/1 4/4/1 1/1/1 
f 5/5/1 4/4/1 3/3/1 
f 3/3/1 6/6/1 5/5/1 
f 7/7/1 5/5/1 6/6/1 
f 6/6/1 8/8/1 7/7/1 
f 8/8/1 2/2/1 1/1/1 
f 1/1/1 7/7/1 8/8/1 
f 9/9/2 10/10/2 11/11/2 
f 10/10/2 9/9/2 12/12/2 
f 13/13/2 10/10/2 12/12/2 
f 12/12/2 14/14/2 13/13/2 
f 15/15/2 9/9/2 11/11/2 
f 11/11/2 16/16/2 15/15/2 
f 14/14/2 15/15/2 16/16/2 
f 16/16/2 13/13/2 14/14/2 
f 15/17/3 1/18/3 4/19/3 
f 4/19/3 9/20/3 15/17/3 
f 14/21/4 7/22/4 1/23/4 
f 1/23/4 15/24/4 14/21/4 
f 12/25/5 5/26/5 7/22/5 
f 7/22/5 14/21/5 12/25/5 
f 9/20/6 4/19/6 5/27/6 
f 5/27/6 12/28/6 9/20/6 
f 17/29/5 18/30/5 19/31/5 
f 20/32/7 21/33/8 18/30/9 
f 19/34/10 22/35/11 23/36/11 
f 24/37/3 25/38/3 26/39/12 
f 25/40/6 27/41/6 19/34/6 
f 28/42/5 21/43/5 29/44/5 
f 25/45/1 24/46/1 17/29/1 
f 22/47/5 28/42/5 29/44/5 
f 17/29/4 24/46/4 30/48/13 
f 31/49/5 22/47/5 29/44/5 
f 31/50/14 32/51/14 23/36/14 
f 23/36/14 22/35/14 31/50/14 
f 21/33/15 20/32/15 33/52/15 
f 33/52/15 34/53/15 21/33/15 
f 35/54/5 31/49/5 29/44/5 
f 35/55/16 36/56/16 32/51/16 
f 32/51/16 31/50/16 35/55/16 
f 21/43/5 34/57/5 29/44/5 
f 34/57/5 35/54/5 29/44/5 
f 34/53/17 33/52/17 36/56/17 
f 36/56/17 35/55/17 34/53/17 
f 30/58/18 33/59/19 20/60/20 
f 36/61/21 33/59/19 30/58/18 
f 23/62/22 32/63/23 30/58/18 
f 32/63/23 36/61/21 30/58/18 
f 26/39/12 23/62/22 30/58/18 
f 30/58/18 24/37/3 26/39/12 
f 18/30/9 21/33/8 28/64/24 
f 28/65/24 22/35/11 19/34/10 
f 19/31/10 18/30/9 28/64/24 
f 37/66/3 38/67/3 39/68/3 
f 39/68/3 40/69/3 37/66/3 
f 30/48/13 20/32/7 18/30/9 
f 26/70/11 19/34/10 23/36/11 
f 26/70/6 25/40/6 19/34/6 
f 27/71/1 25/45/1 17/29/1 
f 18/30/9 17/29/4 30/48/13 
f 41/72/6 40/69/6 39/68/6 
f 39/68/6 42/73/6 41/72/6 
f 27/71/5 17/29/5 19/31/5 
f 43/74/5 44/75/5 45/76/5 
f 46/77/7 47/78/8 44/75/9 
f 45/79/10 48/80/11 49/81/11 
f 50/82/3 51/83/3 52/84/12 
f 51/85/6 53/86/6 45/79/6 
f 54/87/5 47/88/5 55/89/5 
f 51/90/1 50/91/1 43/74/1 
f 48/92/5 54/87/5 55/89/5 
f 43/74/4 50/91/4 56/93/13 
f 57/94/5 48/92/5 55/89/5 
f 57/95/14 58/96/14 49/81/14 
f 49/81/14 48/80/14 57/95/14 
f 47/78/15 46/77/15 59/97/15 
f 59/97/15 60/98/15 47/78/15 
f 61/99/5 57/94/5 55/89/5 
f 61/100/16 62/101/16 58/96/16 
f 58/96/16 57/95/16 61/100/16 
f 47/88/5 60/102/5 55/89/5 
f 60/102/5 61/99/5 55/89/5 
f 60/98/17 59/97/17 62/101/17 
f 62/101/17 61/100/17 60/98/17 
f 56/103/18 59/104/19 46/105/20 
f 62/106/21 59/104/19 56/103/18 
f 49/107/22 58/108/23 56/103/18 
f 58/108/23 62/106/21 56/103/18 
f 52/84/12 49/107/22 56/103/18 
f 56/103/18 50/82/3 52/84/12 
f 44/75/9 47/78/8 54/109/24 
f 54/110/24 48/80/11 45/79/10 
f 45/76/10 44/75/9 54/109/24 
f 42/73/1 39/68/1 38/111/1 
f 38/111/1 63/112/1 42/73/1 
f 56/93/13 46/77/7 44/75/9 
f 52/113/11 45/79/10 49/81/11 
f 52/113/6 51/85/6 45/79/6 
f 53/114/1 51/90/1 43/74/1 
f 44/75/9 43/74/4 56/93/13 
f 63/115/5 64/116/5 41/72/5 
f 41/72/5 42/73/5 63/115/5 
f 53/114/5 43/74/5 45/76/5 
f 65/117/6 13/118/6 16/119/6 
f 16/119/6 66/120/6 65/117/6 
f 67/121/2 68/122/2 65/117/2 
f 65/117/2 66/120/2 67/121/2 
f 67/121/4 11/123/4 10/124/4 
f 10/124/4 68/122/4 67/121/4 
f 66/120/5 16/125/5 11/126/5 
f 11/126/5 67/121/5 66/120/5 
f 68/122/3 10/127/3 13/128/3 
f 13/128/3 65/117/3 68/122/3 
f 69/129/6 2/130/6 8/131/6 
f 8/131/6 70/132/6 69/129/6 
f 71/133/1 69/129/1 70/132/1 
f 70/132/1 72/134/1 71/133/1 
f 72/134/4 6/135/4 3/136/4 
f 3/136/4 71/133/4 72/134/4 
f 71/133/5 3/137/5 2/138/5 
f 2/138/5 69/129/5 71/133/5 
f 70/132/3 8/139/3 6/140/3 
f 6/140/3 72/134/3 70/132/3 
f 64/141/2 37/142/2 40/69/2 
f 40/69/2 41/72/2 64/141/2 
f 73/143/3 74/144/3 75/145/3 
f 75/145/3 76/146/3 73/143/3 
f 73/147/6 76/146/6 77/148/6 
f 77/148/6 78/149/6 73/147/6 
f 77/148/5 79/150/5 80/151/5 
f 80/151/5 78/152/5 77/148/5 
f 75/145/4 74/153/4 80/154/4 
f 80/154/4 79/150/4 75/145/4 
f 76/146/1 75/145/1 79/150/1 
f 79/150/1 77/148/1 76/146/1 
f 81/155/3 82/156/3 83/157/3 
f 83/157/3 84/158/3 81/155/3 
f 85/159/6 84/158/6 83/160/6 
f 83/160/6 86/161/6 85/159/6 
f 87/162/5 88/163/5 85/159/5 
f 85/159/5 86/164/5 87/162/5 
f 87/165/4 82/166/4 81/155/4 
f 81/155/4 88/163/4 87/165/4 
f 88/163/2 81/155/2 84/158/2 
f 84/158/2 85/159/2 88/163/2 
# 146 faces

