# 3ds Max Wavefront OBJ Exporter v0.99 - (c)2007 guruware
# File Created: 11.12.2023 09:12:51

mtllib ending_board.mtl

#
# object Box007
#

v  12.6908 12.7974 -849.7527
v  -12.3092 12.7974 -849.7527
v  -12.3092 12.7974 -850.7527
v  12.6908 12.7974 -850.7527
v  12.6908 27.7974 -849.7527
v  12.6908 27.7974 -850.7527
v  -12.3092 27.7974 -850.7527
v  -12.3092 27.7974 -849.7527
# 8 vertices

vn 0.0000 -1.0000 -0.0000
vn 0.0000 1.0000 -0.0000
vn 1.0000 0.0000 -0.0000
vn 0.0000 0.0000 -1.0000
vn -1.0000 0.0000 -0.0000
vn 0.0000 0.0000 1.0000
# 6 vertex normals

vt 0.7446 0.7642 0.0000
vt 0.6538 0.4486 0.0000
vt 0.6664 0.4450 0.0000
vt 0.7573 0.7606 0.0000
vt 0.8367 0.9455 0.0000
vt 0.8236 0.9460 0.0000
vt 0.8101 0.6179 0.0000
vt 0.8232 0.6173 0.0000
vt 0.8118 0.9499 0.0000
vt 0.7991 0.9536 0.0000
vt 0.0676 0.5644 0.0000
vt 0.3935 0.5243 0.0000
vt 0.4176 0.7199 0.0000
vt 0.0916 0.7600 0.0000
vt 0.8020 0.4210 0.0000
vt 0.8152 0.4204 0.0000
vt 0.0532 0.2878 0.0000
vt 0.3792 0.2477 0.0000
vt 0.4032 0.4433 0.0000
vt 0.0773 0.4834 0.0000
# 20 texture coords

o Box007
g Box007
usemtl wire_177028149
s 2
f 1/1/1 2/2/1 3/3/1 
f 3/3/1 4/4/1 1/1/1 
s 4
f 5/5/2 6/6/2 7/7/2 
f 7/7/2 8/8/2 5/5/2 
s 8
f 1/1/3 4/4/3 6/9/3 
f 6/9/3 5/10/3 1/1/3 
s 16
f 4/11/4 3/12/4 7/13/4 
f 7/13/4 6/14/4 4/11/4 
s 32
f 3/15/5 2/16/5 8/8/5 
f 8/8/5 7/7/5 3/15/5 
s 64
f 2/17/6 1/18/6 5/19/6 
f 5/19/6 8/20/6 2/17/6 
# 12 faces

#
# object Box005
#

v  13.2624 12.7974 -949.1199
v  -11.7376 12.7974 -949.1199
v  -11.7376 12.7974 -950.1199
v  13.2624 12.7974 -950.1199
v  13.2624 27.7974 -949.1199
v  13.2624 27.7974 -950.1199
v  -11.7376 27.7974 -950.1199
v  -11.7376 27.7974 -949.1199
# 8 vertices

vn 0.0000 -1.0000 -0.0000
vn 0.0000 1.0000 -0.0000
vn 1.0000 0.0000 -0.0000
vn 0.0000 0.0000 -1.0000
vn -1.0000 0.0000 -0.0000
vn 0.0000 0.0000 1.0000
# 6 vertex normals

vt 0.7446 0.7642 0.0000
vt 0.6538 0.4486 0.0000
vt 0.6664 0.4450 0.0000
vt 0.7573 0.7606 0.0000
vt 0.8367 0.9455 0.0000
vt 0.8236 0.9460 0.0000
vt 0.8101 0.6179 0.0000
vt 0.8232 0.6173 0.0000
vt 0.8118 0.9499 0.0000
vt 0.7991 0.9536 0.0000
vt 0.0730 0.5423 0.0000
vt 0.4012 0.5308 0.0000
vt 0.4081 0.7277 0.0000
vt 0.0799 0.7392 0.0000
vt 0.8020 0.4210 0.0000
vt 0.8152 0.4204 0.0000
vt 0.0606 0.2729 0.0000
vt 0.3888 0.2613 0.0000
vt 0.3958 0.4582 0.0000
vt 0.0676 0.4698 0.0000
# 20 texture coords

o Box005
g Box005
usemtl wire_177028149
s 2
f 9/21/7 10/22/7 11/23/7 
f 11/23/7 12/24/7 9/21/7 
s 4
f 13/25/8 14/26/8 15/27/8 
f 15/27/8 16/28/8 13/25/8 
s 8
f 9/21/9 12/24/9 14/29/9 
f 14/29/9 13/30/9 9/21/9 
s 16
f 12/31/10 11/32/10 15/33/10 
f 15/33/10 14/34/10 12/31/10 
s 32
f 11/35/11 10/36/11 16/28/11 
f 16/28/11 15/27/11 11/35/11 
s 64
f 10/37/12 9/38/12 13/39/12 
f 13/39/12 16/40/12 10/37/12 
# 12 faces

