# 3ds Max Wavefront OBJ Exporter v0.99 - (c)2007 guruware
# File Created: 29.11.2023 13:44:16

mtllib flash.mtl

#
# object Cylinder001
#

v  0.0000 0.1096 0.4639
v  -0.0775 0.0775 0.4639
v  -0.1096 -0.0000 0.4639
v  0.1096 -0.0000 0.4639
v  0.0775 0.0775 0.4639
v  -0.0761 0.0761 0.3932
v  -0.1076 -0.0000 0.3932
v  0.0000 0.1076 0.3932
v  0.0761 0.0761 0.3932
v  0.1076 -0.0000 0.3932
v  -0.0846 -0.0000 0.2975
v  -0.0598 0.0598 0.2975
v  -0.0555 0.0555 0.0727
v  -0.0784 -0.0000 0.0727
v  0.0000 0.0846 0.2975
v  0.0000 0.0784 0.0727
v  0.0598 0.0598 0.2975
v  0.0555 0.0555 0.0727
v  0.0846 -0.0000 0.2975
v  0.0784 -0.0000 0.0727
v  -0.0552 0.0552 -0.0778
v  -0.0780 -0.0000 -0.0778
v  0.0000 0.0780 -0.0778
v  0.0552 0.0552 -0.0778
v  0.0780 -0.0000 -0.0778
v  -0.0615 0.0615 -0.2972
v  -0.0870 -0.0000 -0.2972
v  0.0000 0.0870 -0.2972
v  0.0615 0.0615 -0.2972
v  0.0870 -0.0000 -0.2972
v  -0.1104 0.1104 -0.4245
v  -0.1561 -0.0000 -0.4245
v  0.0000 0.1561 -0.4245
v  0.1104 0.1104 -0.4245
v  0.1561 -0.0000 -0.4245
v  0.0195 0.0197 -0.5236
v  0.0275 -0.0000 -0.5236
v  -0.0275 -0.0000 -0.5236
v  -0.0195 0.0197 -0.5236
v  0.0000 0.0278 -0.5236
v  -0.1314 0.1317 -0.5455
v  -0.1859 -0.0000 -0.5455
v  0.0000 0.1861 -0.5455
v  0.1314 0.1317 -0.5455
v  0.1859 -0.0000 -0.5455
v  -0.0754 0.0757 -0.4724
v  -0.1067 -0.0000 -0.4724
v  0.0000 0.1069 -0.4724
v  0.0754 0.0757 -0.4724
v  0.1067 -0.0000 -0.4724
v  -0.0775 -0.0775 0.4639
v  0.0000 -0.1096 0.4639
v  0.0775 -0.0775 0.4639
v  -0.0761 -0.0761 0.3932
v  0.0000 -0.1076 0.3932
v  0.0761 -0.0761 0.3932
v  -0.0555 -0.0555 0.0727
v  -0.0598 -0.0598 0.2975
v  0.0000 -0.0784 0.0727
v  0.0000 -0.0846 0.2975
v  0.0555 -0.0555 0.0727
v  0.0598 -0.0598 0.2975
v  -0.0552 -0.0552 -0.0778
v  0.0000 -0.0780 -0.0778
v  0.0552 -0.0552 -0.0778
v  -0.0615 -0.0615 -0.2972
v  0.0000 -0.0870 -0.2972
v  0.0615 -0.0615 -0.2972
v  -0.1104 -0.1104 -0.4245
v  0.0000 -0.1561 -0.4245
v  0.1104 -0.1104 -0.4245
v  0.0195 -0.0197 -0.5236
v  0.0000 -0.0278 -0.5236
v  -0.0195 -0.0197 -0.5236
v  -0.1314 -0.1317 -0.5455
v  0.0000 -0.1861 -0.5455
v  0.1314 -0.1317 -0.5455
v  -0.0754 -0.0757 -0.4724
v  0.0000 -0.1069 -0.4724
v  0.0754 -0.0757 -0.4724
# 80 vertices

vn -0.0000 0.0000 1.0000
vn 0.0000 0.0000 1.0000
vn -0.7068 0.7068 -0.0290
vn -0.7012 0.7012 -0.1287
vn -0.9917 -0.0000 -0.1287
vn -0.9996 -0.0000 -0.0290
vn 0.0000 0.9996 -0.0290
vn 0.0000 0.9917 -0.1287
vn 0.7068 0.7068 -0.0290
vn 0.7012 0.7012 -0.1287
vn 0.9996 0.0000 -0.0290
vn 0.9917 -0.0000 -0.1287
vn -0.9909 -0.0000 -0.1345
vn -0.7007 0.7007 -0.1345
vn -0.7070 0.7070 -0.0150
vn -0.9999 -0.0000 -0.0150
vn -0.0000 0.9909 -0.1345
vn 0.0000 0.9999 -0.0150
vn 0.7007 0.7007 -0.1345
vn 0.7070 0.7070 -0.0150
vn 0.9909 -0.0000 -0.1345
vn 0.9999 -0.0000 -0.0150
vn -0.7070 0.7070 0.0192
vn -0.9998 -0.0000 0.0192
vn 0.0000 0.9998 0.0192
vn 0.7070 0.7070 0.0192
vn 0.9998 0.0000 0.0192
vn -0.6786 0.6785 0.2813
vn -0.9597 0.0000 0.2812
vn -0.0000 0.9596 0.2813
vn 0.6786 0.6785 0.2812
vn 0.9597 0.0000 0.2811
vn -0.6214 0.6214 0.4773
vn -0.8788 0.0000 0.4771
vn -0.0000 0.8787 0.4774
vn 0.6214 0.6213 0.4773
vn 0.8788 0.0000 0.4772
vn 0.0000 -0.0000 -1.0000
vn -0.9008 0.3730 0.2223
vn -0.9011 0.3725 0.2217
vn -0.3730 0.9006 0.2231
vn 0.3730 0.9006 0.2231
vn 0.9010 0.3730 0.2217
vn 0.9010 0.3725 0.2222
vn 0.6536 -0.2702 -0.7070
vn 0.6534 -0.2698 -0.7073
vn 0.2706 -0.6533 -0.7071
vn -0.2706 -0.6533 -0.7071
vn -0.6534 -0.2701 -0.7072
vn -0.6538 -0.2699 -0.7069
vn -0.5302 0.2189 -0.8191
vn -0.5301 0.2153 -0.8202
vn -0.2195 0.5298 -0.8192
vn 0.2195 0.5298 -0.8192
vn 0.5297 0.2187 -0.8195
vn 0.5323 0.2162 -0.8185
vn 0.0000 -0.0000 1.0000
vn -0.7068 -0.7068 -0.0290
vn -0.7012 -0.7012 -0.1287
vn 0.0000 -0.9996 -0.0290
vn 0.0000 -0.9917 -0.1287
vn 0.7068 -0.7068 -0.0290
vn 0.7012 -0.7012 -0.1287
vn -0.7070 -0.7070 -0.0150
vn -0.7007 -0.7007 -0.1345
vn 0.0000 -0.9999 -0.0150
vn -0.0000 -0.9909 -0.1345
vn 0.7070 -0.7070 -0.0150
vn 0.7007 -0.7007 -0.1345
vn -0.7070 -0.7070 0.0192
vn 0.0000 -0.9998 0.0192
vn 0.7070 -0.7070 0.0192
vn -0.6786 -0.6785 0.2813
vn -0.0000 -0.9596 0.2813
vn 0.6786 -0.6785 0.2812
vn -0.6214 -0.6214 0.4773
vn -0.0000 -0.8787 0.4774
vn 0.6214 -0.6213 0.4773
vn -0.9011 -0.3725 0.2217
vn -0.9008 -0.3730 0.2223
vn -0.3730 -0.9006 0.2231
vn 0.3730 -0.9006 0.2231
vn 0.9010 -0.3725 0.2222
vn 0.9010 -0.3730 0.2217
vn 0.6534 0.2698 -0.7073
vn 0.6536 0.2702 -0.7070
vn 0.2706 0.6533 -0.7071
vn -0.2706 0.6533 -0.7071
vn -0.6538 0.2699 -0.7069
vn -0.6534 0.2701 -0.7072
vn -0.5301 -0.2153 -0.8202
vn -0.5302 -0.2189 -0.8191
vn -0.2195 -0.5298 -0.8192
vn 0.2195 -0.5298 -0.8192
vn 0.5323 -0.2162 -0.8185
vn 0.5297 -0.2187 -0.8195
# 96 vertex normals

vt 0.0961 0.1912 0.0000
vt 0.0289 0.1634 0.0000
vt 0.0010 0.0961 0.0000
vt 0.1912 0.0961 0.0000
vt 0.1634 0.1634 0.0000
vt 0.9940 0.7408 0.0000
vt 0.9332 0.7344 0.0000
vt 0.9374 0.6637 0.0000
vt 0.9990 0.6676 0.0000
vt 0.9838 0.8137 0.0000
vt 0.9223 0.8045 0.0000
vt 0.0279 0.4606 0.0000
vt 0.0840 0.4363 0.0000
vt 0.1150 0.4999 0.0000
vt 0.0594 0.5268 0.0000
vt 0.0010 0.3920 0.0000
vt 0.0592 0.3699 0.0000
vt 0.8521 0.6687 0.0000
vt 0.8478 0.7251 0.0000
vt 0.6526 0.7036 0.0000
vt 0.6579 0.6517 0.0000
vt 0.8396 0.7812 0.0000
vt 0.6465 0.7554 0.0000
vt 0.1868 0.4538 0.0000
vt 0.1630 0.4025 0.0000
vt 0.3437 0.3256 0.0000
vt 0.3645 0.3735 0.0000
vt 0.1426 0.3496 0.0000
vt 0.3236 0.2775 0.0000
vt 0.5219 0.6893 0.0000
vt 0.5281 0.6379 0.0000
vt 0.5169 0.7410 0.0000
vt 0.4647 0.2743 0.0000
vt 0.4844 0.3222 0.0000
vt 0.4439 0.2267 0.0000
vt 0.3302 0.6681 0.0000
vt 0.3411 0.6102 0.0000
vt 0.3280 0.7267 0.0000
vt 0.6425 0.1995 0.0000
vt 0.6611 0.2554 0.0000
vt 0.6159 0.1473 0.0000
vt 0.2064 0.6554 0.0000
vt 0.2247 0.5529 0.0000
vt 0.2030 0.7570 0.0000
vt 0.7569 0.1505 0.0000
vt 0.7906 0.2490 0.0000
vt 0.7106 0.0600 0.0000
vt 0.3446 0.0881 0.0000
vt 0.3581 0.0757 0.0000
vt 0.3747 0.1204 0.0000
vt 0.3563 0.1198 0.0000
vt 0.3439 0.1064 0.0000
vt 0.1055 0.6440 0.0000
vt 0.1114 0.5277 0.0000
vt 0.0887 0.7613 0.0000
vt 0.8508 0.1117 0.0000
vt 0.9021 0.2163 0.0000
vt 0.8085 0.0010 0.0000
vt 0.0189 0.6353 0.0000
vt 0.0187 0.5615 0.0000
vt 0.0010 0.7091 0.0000
vt 0.9307 0.0774 0.0000
vt 0.9667 0.1418 0.0000
vt 0.9105 0.0041 0.0000
vt 0.3980 0.1989 0.0000
vt 0.3272 0.1962 0.0000
vt 0.3174 0.1918 0.0000
vt 0.2692 0.1398 0.0000
vt 0.2655 0.1298 0.0000
vt 0.2681 0.0589 0.0000
vt 0.2726 0.0492 0.0000
vt 0.3246 0.0010 0.0000
vt 0.3462 0.0881 0.0000
vt 0.3456 0.1064 0.0000
vt 0.3580 0.1198 0.0000
vt 0.3764 0.1204 0.0000
vt 0.3598 0.0757 0.0000
vt 0.3996 0.1989 0.0000
vt 0.3288 0.1962 0.0000
vt 0.3191 0.1918 0.0000
vt 0.2709 0.1398 0.0000
vt 0.2672 0.1298 0.0000
vt 0.2698 0.0589 0.0000
vt 0.2743 0.0492 0.0000
vt 0.3262 0.0010 0.0000
# 85 texture coords

o Cylinder001
g Cylinder001
usemtl wire_008110135
s 1
f 1/1/1 2/2/1 3/3/1 
f 1/1/1 3/3/1 4/4/2 
f 5/5/2 1/1/1 4/4/2 
s 8
f 2/6/3 6/7/4 7/8/5 
f 7/8/5 3/9/6 2/6/3 
f 1/10/7 8/11/8 6/7/4 
f 6/7/4 2/6/3 1/10/7 
f 5/12/9 9/13/10 8/14/8 
f 8/14/8 1/15/7 5/12/9 
f 4/16/11 10/17/12 9/13/10 
f 9/13/10 5/12/9 4/16/11 
f 11/18/13 12/19/14 13/20/15 
f 13/20/15 14/21/16 11/18/13 
f 12/19/14 15/22/17 16/23/18 
f 16/23/18 13/20/15 12/19/14 
f 15/24/17 17/25/19 18/26/20 
f 18/26/20 16/27/18 15/24/17 
f 17/25/19 19/28/21 20/29/22 
f 20/29/22 18/26/20 17/25/19 
f 14/21/16 13/20/15 21/30/23 
f 21/30/23 22/31/24 14/21/16 
f 13/20/15 16/23/18 23/32/25 
f 23/32/25 21/30/23 13/20/15 
f 16/27/18 18/26/20 24/33/26 
f 24/33/26 23/34/25 16/27/18 
f 18/26/20 20/29/22 25/35/27 
f 25/35/27 24/33/26 18/26/20 
f 22/31/24 21/30/23 26/36/28 
f 26/36/28 27/37/29 22/31/24 
f 21/30/23 23/32/25 28/38/30 
f 28/38/30 26/36/28 21/30/23 
f 23/34/25 24/33/26 29/39/31 
f 29/39/31 28/40/30 23/34/25 
f 24/33/26 25/35/27 30/41/32 
f 30/41/32 29/39/31 24/33/26 
f 27/37/29 26/36/28 31/42/33 
f 31/42/33 32/43/34 27/37/29 
f 26/36/28 28/38/30 33/44/35 
f 33/44/35 31/42/33 26/36/28 
f 28/40/30 29/39/31 34/45/36 
f 34/45/36 33/46/35 28/40/30 
f 29/39/31 30/41/32 35/47/37 
f 35/47/37 34/45/36 29/39/31 
s 1
f 36/48/38 37/49/38 38/50/38 
f 36/48/38 38/50/38 39/51/38 
f 36/48/38 39/51/38 40/52/38 
s off
f 32/43/39 31/42/39 41/53/39 
f 41/53/40 42/54/40 32/43/40 
f 31/42/41 33/44/41 43/55/41 
f 43/55/41 41/53/41 31/42/41 
f 33/46/42 34/45/42 44/56/42 
f 44/56/42 43/57/42 33/46/42 
f 34/45/43 35/47/43 45/58/43 
f 45/58/44 44/56/44 34/45/44 
f 42/54/45 41/53/45 46/59/45 
f 46/59/46 47/60/46 42/54/46 
f 41/53/47 43/55/47 48/61/47 
f 48/61/47 46/59/47 41/53/47 
f 43/57/48 44/56/48 49/62/48 
f 49/62/48 48/63/48 43/57/48 
f 44/56/49 45/58/49 50/64/49 
f 50/64/50 49/62/50 44/56/50 
f 47/65/51 46/66/51 39/51/51 
f 39/51/52 38/50/52 47/65/52 
f 46/67/53 48/68/53 40/52/53 
f 40/52/53 39/51/53 46/67/53 
f 48/69/54 49/70/54 36/48/54 
f 36/48/54 40/52/54 48/69/54 
f 49/71/55 50/72/55 37/49/55 
f 37/49/56 36/48/56 49/71/56 
s 8
f 12/19/14 11/18/13 7/8/5 
f 7/8/5 6/7/4 12/19/14 
f 15/22/17 12/19/14 6/7/4 
f 6/7/4 8/11/8 15/22/17 
f 17/25/19 15/24/17 8/14/8 
f 8/14/8 9/13/10 17/25/19 
f 19/28/21 17/25/19 9/13/10 
f 9/13/10 10/17/12 19/28/21 
s 1
f 3/3/1 51/2/1 52/1/1 
f 4/4/2 3/3/1 52/1/1 
f 53/5/57 4/4/2 52/1/1 
s 8
f 51/6/58 3/9/6 7/8/5 
f 7/8/5 54/7/59 51/6/58 
f 52/10/60 51/6/58 54/7/59 
f 54/7/59 55/11/61 52/10/60 
f 53/12/62 52/15/60 55/14/61 
f 55/14/61 56/13/63 53/12/62 
f 4/16/11 53/12/62 56/13/63 
f 56/13/63 10/17/12 4/16/11 
f 11/18/13 14/21/16 57/20/64 
f 57/20/64 58/19/65 11/18/13 
f 58/19/65 57/20/64 59/23/66 
f 59/23/66 60/22/67 58/19/65 
f 60/24/67 59/27/66 61/26/68 
f 61/26/68 62/25/69 60/24/67 
f 62/25/69 61/26/68 20/29/22 
f 20/29/22 19/28/21 62/25/69 
f 14/21/16 22/31/24 63/30/70 
f 63/30/70 57/20/64 14/21/16 
f 57/20/64 63/30/70 64/32/71 
f 64/32/71 59/23/66 57/20/64 
f 59/27/66 64/34/71 65/33/72 
f 65/33/72 61/26/68 59/27/66 
f 61/26/68 65/33/72 25/35/27 
f 25/35/27 20/29/22 61/26/68 
f 22/31/24 27/37/29 66/36/73 
f 66/36/73 63/30/70 22/31/24 
f 63/30/70 66/36/73 67/38/74 
f 67/38/74 64/32/71 63/30/70 
f 64/34/71 67/40/74 68/39/75 
f 68/39/75 65/33/72 64/34/71 
f 65/33/72 68/39/75 30/41/32 
f 30/41/32 25/35/27 65/33/72 
f 27/37/29 32/43/34 69/42/76 
f 69/42/76 66/36/73 27/37/29 
f 66/36/73 69/42/76 70/44/77 
f 70/44/77 67/38/74 66/36/73 
f 67/40/74 70/46/77 71/45/78 
f 71/45/78 68/39/75 67/40/74 
f 68/39/75 71/45/78 35/47/37 
f 35/47/37 30/41/32 68/39/75 
s 1
f 72/73/38 73/74/38 74/75/38 
f 72/73/38 74/75/38 38/76/38 
f 72/73/38 38/76/38 37/77/38 
s off
f 32/43/79 42/54/79 75/53/79 
f 75/53/80 69/42/80 32/43/80 
f 69/42/81 75/53/81 76/55/81 
f 76/55/81 70/44/81 69/42/81 
f 70/46/82 76/57/82 77/56/82 
f 77/56/82 71/45/82 70/46/82 
f 71/45/83 77/56/83 45/58/83 
f 45/58/84 35/47/84 71/45/84 
f 42/54/85 47/60/85 78/59/85 
f 78/59/86 75/53/86 42/54/86 
f 75/53/87 78/59/87 79/61/87 
f 79/61/87 76/55/87 75/53/87 
f 76/57/88 79/63/88 80/62/88 
f 80/62/88 77/56/88 76/57/88 
f 77/56/89 80/62/89 50/64/89 
f 50/64/90 45/58/90 77/56/90 
f 47/78/91 38/76/91 74/75/91 
f 74/75/92 78/79/92 47/78/92 
f 78/80/93 74/75/93 73/74/93 
f 73/74/93 79/81/93 78/80/93 
f 79/82/94 73/74/94 72/73/94 
f 72/73/94 80/83/94 79/82/94 
f 80/84/95 72/73/95 37/77/95 
f 37/77/96 50/85/96 80/84/96 
s 8
f 58/19/65 54/7/59 7/8/5 
f 7/8/5 11/18/13 58/19/65 
f 60/22/67 55/11/61 54/7/59 
f 54/7/59 58/19/65 60/22/67 
f 62/25/69 56/13/63 55/14/61 
f 55/14/61 60/24/67 62/25/69 
f 19/28/21 10/17/12 56/13/63 
f 56/13/63 62/25/69 19/28/21 
# 156 faces

