# 3ds Max Wavefront OBJ Exporter v0.99 - (c)2007 guruware
# File Created: 30.11.2023 22:09:29

mtllib door.mtl

#
# object Box078
#

v  -3.4858 6.4394 -25.9969
v  -3.6372 6.4394 -25.9969
v  -3.6372 6.5703 -25.9969
v  -3.4858 6.5703 -25.9969
v  -3.7893 6.4394 -25.9969
v  -3.7893 6.5703 -25.9969
v  -3.6372 6.6937 -25.9969
v  -3.4858 6.6937 -25.9969
v  -3.7852 6.6937 -25.9969
v  -5.0000 -0.0000 -25.2500
v  -5.0000 6.5723 -25.2500
v  -5.0000 6.5723 -25.5000
v  -5.0000 -0.0000 -25.5000
v  -5.0000 20.0000 -25.2500
v  -5.0000 20.0000 -25.5000
v  -3.4858 6.6937 -25.5000
v  -3.6372 6.6937 -25.5000
v  -3.6374 20.0000 -25.5000
v  5.0000 20.0000 -25.5000
v  5.0000 6.5723 -25.5000
v  -3.4858 6.5703 -25.5000
v  5.0000 -0.0000 -25.5000
v  -3.4858 6.4394 -25.5000
v  -3.6374 -0.0000 -25.5000
v  -3.6372 6.4394 -25.5000
v  -3.7893 6.4394 -25.5000
v  -3.7893 6.5703 -25.5000
v  -3.7852 6.6937 -25.5000
v  -3.4858 6.6937 -25.7484
v  -3.6372 6.6937 -25.7484
v  -3.4858 6.5703 -25.7484
v  -3.4858 6.4394 -25.7484
v  -3.6372 6.4394 -25.7484
v  -3.7893 6.4394 -25.7484
v  -3.7893 6.5703 -25.7484
v  -3.7852 6.6937 -25.7484
v  -2.7405 6.6937 -25.7484
v  -2.7405 6.5703 -25.7484
v  -2.7405 6.5703 -25.9969
v  -2.7405 6.6937 -25.9969
v  -2.7405 6.4394 -25.7484
v  -2.7405 6.4394 -25.9969
v  -3.6374 -0.0000 -25.2500
v  5.0000 -0.0000 -25.2500
v  -3.6374 20.0000 -25.2500
v  5.0000 20.0000 -25.2500
v  5.0000 6.5723 -25.2500
v  -3.4858 6.4394 -24.5031
v  -3.4858 6.5703 -24.5031
v  -3.6372 6.5703 -24.5031
v  -3.6372 6.4394 -24.5031
v  -3.7893 6.4394 -24.5031
v  -3.7893 6.5703 -24.5031
v  -3.4858 6.6937 -24.5031
v  -3.6372 6.6937 -24.5031
v  -3.7852 6.6937 -24.5031
v  -5.0000 -0.0000 -25.0000
v  -5.0000 6.5723 -25.0000
v  -5.0000 20.0000 -25.0000
v  -3.4858 6.6937 -25.0000
v  -3.4858 6.5703 -25.0000
v  5.0000 6.5723 -25.0000
v  5.0000 20.0000 -25.0000
v  -3.6374 20.0000 -25.0000
v  -3.6372 6.6937 -25.0000
v  -3.4858 6.4394 -25.0000
v  -3.6372 6.4394 -25.0000
v  -3.6374 -0.0000 -25.0000
v  5.0000 -0.0000 -25.0000
v  -3.7893 6.4394 -25.0000
v  -3.7893 6.5703 -25.0000
v  -3.7852 6.6937 -25.0000
v  -3.6372 6.6937 -24.7516
v  -3.4858 6.6937 -24.7516
v  -3.4858 6.5703 -24.7516
v  -3.4858 6.4394 -24.7516
v  -3.6372 6.4394 -24.7516
v  -3.7893 6.4394 -24.7516
v  -3.7893 6.5703 -24.7516
v  -3.7852 6.6937 -24.7516
v  -2.7405 6.6937 -24.7516
v  -2.7405 6.6937 -24.5031
v  -2.7405 6.5703 -24.5031
v  -2.7405 6.5703 -24.7516
v  -2.7405 6.4394 -24.5031
v  -2.7405 6.4394 -24.7516
# 86 vertices

vn -0.0000 -0.0000 -1.0000
vn 0.0000 -0.0000 -1.0000
vn -0.0000 0.0000 -1.0000
vn 0.0000 0.0000 -1.0000
vn -1.0000 0.0000 -0.0000
vn 0.0000 1.0000 -0.0000
vn 1.0000 0.0000 -0.0000
vn 1.0000 -0.0000 -0.0000
vn 0.0000 -1.0000 -0.0000
vn -0.9994 0.0332 -0.0000
vn 0.0000 -0.0000 1.0000
vn 0.0000 0.0000 1.0000
vn -0.0000 -0.0000 1.0000
vn -0.0000 0.0000 1.0000
# 14 vertex normals

vt 0.7033 0.3064 0.0000
vt 0.7085 0.3091 0.0000
vt 0.7070 0.3149 0.0000
vt 0.7011 0.3121 0.0000
vt 0.7128 0.3116 0.0000
vt 0.7136 0.3164 0.0000
vt 0.7062 0.3200 0.0000
vt 0.6992 0.3175 0.0000
vt 0.7136 0.3219 0.0000
vt 0.9586 0.0524 0.0000
vt 0.9586 0.5102 0.0000
vt 0.9471 0.5102 0.0000
vt 0.9471 0.0524 0.0000
vt 0.9586 0.9680 0.0000
vt 0.9471 0.9680 0.0000
vt 0.4128 0.4842 0.0000
vt 0.4197 0.4846 0.0000
vt 0.3959 0.9362 0.0000
vt 0.0010 0.9154 0.0000
vt 0.0251 0.4582 0.0000
vt 0.4131 0.4786 0.0000
vt 0.0493 0.0010 0.0000
vt 0.4134 0.4726 0.0000
vt 0.4442 0.0219 0.0000
vt 0.4204 0.4730 0.0000
vt 0.4273 0.4733 0.0000
vt 0.5065 0.0251 0.0000
vt 0.4823 0.4823 0.0000
vt 0.4270 0.4793 0.0000
vt 0.4582 0.9395 0.0000
vt 0.4265 0.4850 0.0000
vt 0.6983 0.3414 0.0000
vt 0.6916 0.3392 0.0000
vt 0.6952 0.3282 0.0000
vt 0.7021 0.3306 0.0000
vt 0.6644 0.3629 0.0000
vt 0.6637 0.3573 0.0000
vt 0.6750 0.3559 0.0000
vt 0.6757 0.3615 0.0000
vt 0.6630 0.3513 0.0000
vt 0.6743 0.3500 0.0000
vt 0.7182 0.2879 0.0000
vt 0.7235 0.2930 0.0000
vt 0.7150 0.3005 0.0000
vt 0.7092 0.2962 0.0000
vt 0.7287 0.2988 0.0000
vt 0.7202 0.3058 0.0000
vt 0.7324 0.3041 0.0000
vt 0.7233 0.3111 0.0000
vt 0.7356 0.3089 0.0000
vt 0.7259 0.3161 0.0000
vt 0.7048 0.3437 0.0000
vt 0.7087 0.3329 0.0000
vt 0.7096 0.3574 0.0000
vt 0.7089 0.3518 0.0000
vt 0.7202 0.3504 0.0000
vt 0.7209 0.3560 0.0000
vt 0.7082 0.3458 0.0000
vt 0.7195 0.3445 0.0000
vt 0.6722 0.2928 0.0000
vt 0.6769 0.2823 0.0000
vt 0.6698 0.2985 0.0000
vt 0.6675 0.3038 0.0000
vt 0.6630 0.3145 0.0000
vt 0.5811 0.4938 0.0000
vt 0.5748 0.5558 0.0000
vt 0.5634 0.5547 0.0000
vt 0.5697 0.4926 0.0000
vt 0.5349 0.9493 0.0000
vt 0.5235 0.9481 0.0000
vt 0.5334 0.8957 0.0000
vt 0.5231 0.9572 0.0000
vt 0.5118 0.9554 0.0000
vt 0.5221 0.8938 0.0000
vt 0.5986 0.5057 0.0000
vt 0.5873 0.5038 0.0000
vt 0.9464 0.0524 0.0000
vt 0.9464 0.5102 0.0000
vt 0.9349 0.5102 0.0000
vt 0.9349 0.0524 0.0000
vt 0.9464 0.9680 0.0000
vt 0.9349 0.9680 0.0000
# 82 texture coords

o Box078
g Box078
usemtl wire_177148027
s 32
f 1/1/1 2/2/2 3/3/3 
f 3/3/3 4/4/4 1/1/1 
f 5/5/4 6/6/3 3/3/3 
f 3/3/3 2/2/2 5/5/4 
f 3/3/3 7/7/3 8/8/4 
f 8/8/4 4/4/4 3/3/3 
f 3/3/3 6/6/3 9/9/3 
f 9/9/3 7/7/3 3/3/3 
s 64
f 10/10/5 11/11/5 12/12/5 
f 12/12/5 13/13/5 10/10/5 
f 11/11/5 14/14/5 15/15/5 
f 15/15/5 12/12/5 11/11/5 
s 32
f 16/16/3 17/17/4 18/18/4 
f 16/16/3 18/18/4 19/19/3 
f 16/16/3 19/19/3 20/20/1 
f 16/16/3 20/20/1 21/21/1 
f 21/21/1 20/20/1 22/22/1 
f 23/23/1 21/21/1 22/22/1 
f 23/23/1 22/22/1 24/24/2 
f 23/23/1 24/24/2 25/25/2 
f 26/26/2 25/25/2 24/24/2 
f 26/26/2 24/24/2 13/27/1 
f 26/26/2 13/27/1 12/28/1 
f 26/26/2 12/28/1 27/29/3 
f 27/29/3 12/28/1 15/30/3 
f 18/18/4 17/17/4 28/31/4 
f 15/30/3 18/18/4 28/31/4 
f 27/29/3 15/30/3 28/31/4 
s off
f 17/32/6 16/33/6 29/34/6 
f 29/34/6 30/35/6 17/32/6 
f 16/36/7 21/37/7 31/38/7 
f 31/38/7 29/39/7 16/36/7 
f 21/37/8 23/40/8 32/41/8 
f 32/41/8 31/38/8 21/37/8 
f 23/42/9 25/43/9 33/44/9 
f 33/44/9 32/45/9 23/42/9 
f 25/43/9 26/46/9 34/47/9 
f 34/47/9 33/44/9 25/43/9 
f 26/46/5 27/48/5 35/49/5 
f 35/49/5 34/47/5 26/46/5 
f 27/48/10 28/50/10 36/51/10 
f 36/51/10 35/49/10 27/48/10 
f 28/52/6 17/32/6 30/35/6 
f 30/35/6 36/53/6 28/52/6 
f 30/35/6 29/34/6 8/8/6 
f 8/8/6 7/7/6 30/35/6 
f 37/54/7 38/55/7 39/56/7 
f 39/56/7 40/57/7 37/54/7 
f 38/55/8 41/58/8 42/59/8 
f 42/59/8 39/56/8 38/55/8 
f 32/45/9 33/44/9 2/2/9 
f 2/2/9 1/1/9 32/45/9 
f 33/44/9 34/47/9 5/5/9 
f 5/5/9 2/2/9 33/44/9 
f 34/47/5 35/49/5 6/6/5 
f 6/6/5 5/5/5 34/47/5 
f 35/49/10 36/51/10 9/9/10 
f 9/9/10 6/6/10 35/49/10 
f 36/53/6 30/35/6 7/7/6 
f 7/7/6 9/9/6 36/53/6 
f 29/39/11 31/38/11 38/55/11 
f 38/55/11 37/54/11 29/39/11 
f 31/38/12 32/41/12 41/58/12 
f 41/58/12 38/55/12 31/38/12 
f 32/45/9 1/1/9 42/60/9 
f 42/60/9 41/61/9 32/45/9 
f 1/1/4 4/4/4 39/62/4 
f 39/62/4 42/60/4 1/1/4 
f 4/4/4 8/8/4 40/63/4 
f 40/63/4 39/62/4 4/4/4 
f 8/8/6 29/34/6 37/64/6 
f 37/64/6 40/63/6 8/8/6 
s 2
f 13/65/9 24/66/9 43/67/9 
f 43/67/9 10/68/9 13/65/9 
f 24/66/9 22/69/9 44/70/9 
f 44/70/9 43/67/9 24/66/9 
s 4
f 18/71/6 15/72/6 14/73/6 
f 14/73/6 45/74/6 18/71/6 
f 19/75/6 18/71/6 45/74/6 
f 45/74/6 46/76/6 19/75/6 
s 16
f 22/77/7 20/78/7 47/79/7 
f 47/79/7 44/80/7 22/77/7 
f 20/78/7 19/81/7 46/82/7 
f 46/82/7 47/79/7 20/78/7 
s 32
f 48/1/12 49/4/12 50/3/11 
f 50/3/11 51/2/13 48/1/12 
f 52/5/11 51/2/13 50/3/11 
f 50/3/11 53/6/12 52/5/11 
f 50/3/11 49/4/12 54/8/12 
f 54/8/12 55/7/12 50/3/11 
f 50/3/11 55/7/12 56/9/12 
f 56/9/12 53/6/12 50/3/11 
s 64
f 10/10/5 57/13/5 58/12/5 
f 58/12/5 11/11/5 10/10/5 
f 11/11/5 58/12/5 59/15/5 
f 59/15/5 14/14/5 11/11/5 
s 32
f 60/16/12 61/21/12 62/20/14 
f 60/16/12 62/20/14 63/19/13 
f 60/16/12 63/19/13 64/18/11 
f 60/16/12 64/18/11 65/17/11 
f 66/23/14 67/25/12 68/24/12 
f 66/23/14 68/24/12 69/22/14 
f 69/22/14 62/20/14 61/21/12 
f 66/23/14 69/22/14 61/21/12 
f 70/26/12 71/29/12 58/28/12 
f 70/26/12 58/28/12 57/27/12 
f 70/26/12 57/27/12 68/24/12 
f 70/26/12 68/24/12 67/25/12 
f 72/31/13 65/17/11 64/18/11 
f 72/31/13 64/18/11 59/30/11 
f 71/29/12 72/31/13 59/30/11 
f 71/29/12 59/30/11 58/28/12 
s off
f 65/32/6 73/35/6 74/34/6 
f 74/34/6 60/33/6 65/32/6 
f 60/36/7 74/39/7 75/38/7 
f 75/38/7 61/37/7 60/36/7 
f 61/37/8 75/38/8 76/41/8 
f 76/41/8 66/40/8 61/37/8 
f 66/42/9 76/45/9 77/44/9 
f 77/44/9 67/43/9 66/42/9 
f 67/43/9 77/44/9 78/47/9 
f 78/47/9 70/46/9 67/43/9 
f 70/46/5 78/47/5 79/49/5 
f 79/49/5 71/48/5 70/46/5 
f 71/48/10 79/49/10 80/51/10 
f 80/51/10 72/50/10 71/48/10 
f 72/52/6 80/53/6 73/35/6 
f 73/35/6 65/32/6 72/52/6 
f 73/35/6 55/7/6 54/8/6 
f 54/8/6 74/34/6 73/35/6 
f 81/54/7 82/57/7 83/56/7 
f 83/56/7 84/55/7 81/54/7 
f 84/55/8 83/56/8 85/59/8 
f 85/59/8 86/58/8 84/55/8 
f 76/45/9 48/1/9 51/2/9 
f 51/2/9 77/44/9 76/45/9 
f 77/44/9 51/2/9 52/5/9 
f 52/5/9 78/47/9 77/44/9 
f 78/47/5 52/5/5 53/6/5 
f 53/6/5 79/49/5 78/47/5 
f 79/49/10 53/6/10 56/9/10 
f 56/9/10 80/51/10 79/49/10 
f 80/53/6 56/9/6 55/7/6 
f 55/7/6 73/35/6 80/53/6 
f 74/39/2 81/54/2 84/55/2 
f 84/55/2 75/38/2 74/39/2 
f 75/38/4 84/55/4 86/58/4 
f 86/58/4 76/41/4 75/38/4 
f 76/45/9 86/61/9 85/60/9 
f 85/60/9 48/1/9 76/45/9 
f 48/1/12 85/60/12 83/62/12 
f 83/62/14 49/4/14 48/1/14 
f 49/4/14 83/62/14 82/63/14 
f 82/63/12 54/8/12 49/4/12 
f 54/8/6 82/63/6 81/64/6 
f 81/64/6 74/34/6 54/8/6 
s 2
f 57/65/9 10/68/9 43/67/9 
f 43/67/9 68/66/9 57/65/9 
f 68/66/9 43/67/9 44/70/9 
f 44/70/9 69/69/9 68/66/9 
s 4
f 64/71/6 45/74/6 14/73/6 
f 14/73/6 59/72/6 64/71/6 
f 63/75/6 46/76/6 45/74/6 
f 45/74/6 64/71/6 63/75/6 
s 16
f 69/77/7 44/80/7 47/79/7 
f 47/79/7 62/78/7 69/77/7 
f 62/78/7 47/79/7 46/82/7 
f 46/82/7 63/81/7 62/78/7 
# 168 faces

