# 3ds Max Wavefront OBJ Exporter v0.99 - (c)2007 guruware
# File Created: 30.11.2023 04:37:47

mtllib table.mtl

#
# object Ready_Table
#

v  -5.2189 9.7853 -47.4384
v  -16.8151 9.7853 -47.4384
v  -16.8151 9.0951 -47.4384
v  -5.2189 9.0951 -47.4384
v  -16.8151 9.7853 -72.2875
v  -16.8151 9.0951 -72.2875
v  -5.2189 9.7853 -72.2875
v  -5.2189 9.0951 -72.2875
v  -11.4332 9.2181 -50.4345
v  -12.5440 9.2181 -50.4345
v  -12.5440 0.9456 -50.4345
v  -11.4332 0.9456 -50.4345
v  -12.5440 9.2181 -51.5453
v  -12.5440 0.9456 -51.5453
v  -11.4332 9.2181 -51.5453
v  -11.4332 0.9456 -51.5453
v  -12.5440 0.9456 -69.2915
v  -12.5440 9.2181 -69.2915
v  -11.4332 9.2181 -69.2915
v  -11.4332 0.9456 -69.2915
v  -12.5440 0.9456 -68.1806
v  -12.5440 9.2181 -68.1806
v  -11.4332 0.9456 -68.1806
v  -11.4332 9.2181 -68.1806
v  -9.4900 0.9456 -50.4345
v  -9.4900 9.2181 -50.4345
v  -10.6008 9.2181 -50.4345
v  -10.6008 0.9456 -50.4345
v  -9.4900 0.9456 -51.5453
v  -9.4900 9.2181 -51.5453
v  -10.6008 0.9456 -51.5453
v  -10.6008 9.2181 -51.5453
v  -10.6008 9.2181 -69.2915
v  -9.4900 9.2181 -69.2915
v  -9.4900 0.9456 -69.2915
v  -10.6008 0.9456 -69.2915
v  -9.4900 9.2181 -68.1806
v  -9.4900 0.9456 -68.1806
v  -10.6008 9.2181 -68.1806
v  -10.6008 0.9456 -68.1806
v  -10.6805 2.2281 -49.9531
v  -11.3535 2.2281 -49.9531
v  -11.3535 0.9374 -49.9531
v  -10.6805 0.9374 -49.9531
v  -11.3535 2.2281 -69.7729
v  -11.3535 0.9374 -69.7729
v  -10.6805 2.2281 -69.7729
v  -10.6805 0.9374 -69.7729
v  -15.2295 1.0658 -51.7520
v  -13.4232 1.0658 -51.7520
v  -13.4232 0.3072 -51.7520
v  -13.4232 -0.0791 -51.7520
v  -15.2295 -0.0791 -51.7520
v  -13.4232 0.3072 -50.2385
v  -13.4232 1.0658 -50.2385
v  -15.2295 1.0658 -50.2385
v  -15.2295 -0.0791 -50.2385
v  -13.4232 -0.0791 -50.2385
v  -6.8045 1.0658 -50.2385
v  -6.8045 -0.0791 -50.2385
v  -6.8045 -0.0791 -51.7520
v  -6.8045 1.0658 -51.7520
v  -8.6108 0.3072 -50.2385
v  -8.6108 -0.0791 -50.2385
v  -8.6108 1.0658 -50.2385
v  -8.6108 1.0658 -51.7520
v  -8.6108 0.3072 -51.7520
v  -8.6108 -0.0791 -51.7520
v  -15.2295 1.0658 -69.4875
v  -15.2295 -0.0791 -69.4875
v  -15.2295 -0.0791 -67.9740
v  -15.2295 1.0658 -67.9740
v  -13.4232 0.3072 -67.9740
v  -13.4232 1.0658 -67.9740
v  -13.4232 -0.0791 -67.9740
v  -13.4232 1.0658 -69.4875
v  -13.4232 0.3072 -69.4875
v  -13.4232 -0.0791 -69.4875
v  -6.8045 1.0658 -67.9740
v  -8.6108 1.0658 -67.9740
v  -8.6108 0.3072 -67.9740
v  -8.6108 -0.0791 -67.9740
v  -6.8045 -0.0791 -67.9740
v  -6.8045 -0.0791 -69.4875
v  -6.8045 1.0658 -69.4875
v  -8.6108 1.0658 -69.4875
v  -8.6108 0.3072 -69.4875
v  -8.6108 -0.0791 -69.4875
v  -13.9282 1.5399 -50.5339
v  -13.9282 1.5399 -51.4349
v  -14.0843 0.8077 -51.4349
v  -14.0843 0.8077 -50.5339
v  -13.2941 1.8726 -51.4349
v  -12.9615 2.5061 -51.4349
v  -12.2293 2.6628 -51.4349
v  -12.2293 0.8077 -51.4349
v  -12.2293 0.8077 -50.5339
v  -12.2293 2.6628 -50.5339
v  -12.9615 2.5061 -50.5339
v  -13.2941 1.8726 -50.5339
v  -14.0843 0.8077 -68.2911
v  -13.9283 1.5399 -68.2911
v  -13.9283 1.5399 -69.1921
v  -14.0843 0.8077 -69.1921
v  -12.2293 0.8077 -68.2911
v  -12.2293 2.6628 -68.2911
v  -12.9615 2.5061 -68.2911
v  -13.2941 1.8726 -68.2911
v  -12.2293 0.8077 -69.1921
v  -13.2941 1.8726 -69.1921
v  -12.9615 2.5061 -69.1921
v  -12.2293 2.6628 -69.1921
v  -7.9497 0.8077 -51.4349
v  -8.1057 1.5399 -51.4349
v  -8.1057 1.5399 -50.5339
v  -7.9497 0.8077 -50.5339
v  -9.8047 0.8077 -51.4349
v  -9.8047 2.6628 -51.4349
v  -9.0725 2.5061 -51.4349
v  -8.7399 1.8726 -51.4349
v  -9.8047 0.8077 -50.5339
v  -8.7399 1.8726 -50.5339
v  -9.0725 2.5061 -50.5339
v  -9.8047 2.6628 -50.5339
v  -8.1057 1.5399 -69.1921
v  -8.1057 1.5399 -68.2911
v  -7.9497 0.8077 -68.2911
v  -7.9497 0.8077 -69.1921
v  -8.7399 1.8726 -68.2911
v  -9.0725 2.5061 -68.2911
v  -9.8047 2.6628 -68.2911
v  -9.8047 0.8077 -68.2911
v  -9.8047 0.8077 -69.1921
v  -9.8047 2.6628 -69.1921
v  -9.0725 2.5061 -69.1921
v  -8.7399 1.8726 -69.1921
v  -13.5513 8.0789 -51.4349
v  -14.0843 9.4009 -51.4349
v  -12.2293 9.4009 -51.4349
v  -12.2293 7.5459 -51.4349
v  -12.2293 9.4009 -50.5339
v  -14.0843 9.4009 -50.5339
v  -13.5513 8.0789 -50.5339
v  -12.2293 7.5459 -50.5339
v  -12.2293 9.4009 -68.2911
v  -14.0843 9.4009 -68.2911
v  -13.5513 8.0789 -68.2911
v  -12.2293 7.5459 -68.2911
v  -13.5513 8.0789 -69.1921
v  -14.0843 9.4009 -69.1921
v  -12.2293 9.4009 -69.1921
v  -12.2293 7.5459 -69.1921
v  -9.8047 9.4009 -51.4349
v  -7.9497 9.4009 -51.4349
v  -8.4827 8.0789 -51.4349
v  -9.8047 7.5459 -51.4349
v  -8.4827 8.0789 -50.5339
v  -7.9497 9.4009 -50.5339
v  -9.8047 9.4009 -50.5339
v  -9.8047 7.5459 -50.5339
v  -8.4827 8.0789 -68.2911
v  -7.9497 9.4009 -68.2911
v  -9.8047 9.4009 -68.2911
v  -9.8047 7.5459 -68.2911
v  -9.8047 9.4009 -69.1921
v  -7.9497 9.4009 -69.1921
v  -8.4827 8.0789 -69.1921
v  -9.8047 7.5459 -69.1921
# 168 vertices

vn 0.0000 0.0000 1.0000
vn -1.0000 0.0000 -0.0000
vn 0.0000 0.0000 -1.0000
vn 1.0000 0.0000 -0.0000
vn 0.0000 -1.0000 -0.0000
vn 0.0000 1.0000 -0.0000
vn -0.9780 0.2085 -0.0000
vn -0.8854 0.4649 -0.0000
vn -0.4645 0.8856 -0.0000
vn -0.2093 0.9779 -0.0000
vn 0.9780 0.2085 -0.0000
vn 0.8854 0.4649 -0.0000
vn 0.4645 0.8856 -0.0000
vn 0.2093 0.9779 -0.0000
vn -0.3739 -0.9275 -0.0000
vn -0.9275 -0.3739 -0.0000
vn 0.3739 -0.9275 -0.0000
vn 0.9275 -0.3739 -0.0000
# 18 vertex normals

vt 0.9780 0.8478 0.0000
vt 0.9780 0.5025 0.0000
vt 0.9985 0.5025 0.0000
vt 0.9985 0.8478 0.0000
vt 0.3468 0.7414 0.0000
vt 0.3468 0.0015 0.0000
vt 0.3673 0.0015 0.0000
vt 0.3673 0.7414 0.0000
vt 0.7926 0.9405 0.0000
vt 0.7926 0.5952 0.0000
vt 0.8132 0.5952 0.0000
vt 0.8132 0.9405 0.0000
vt 0.8213 0.7414 0.0000
vt 0.8213 0.0015 0.0000
vt 0.8419 0.0015 0.0000
vt 0.8419 0.7414 0.0000
vt 0.7156 0.7414 0.0000
vt 0.3703 0.7414 0.0000
vt 0.3703 0.0015 0.0000
vt 0.7156 0.0015 0.0000
vt 0.0015 0.7414 0.0000
vt 0.0015 0.0015 0.0000
vt 0.9419 0.5064 0.0000
vt 0.9750 0.5064 0.0000
vt 0.9750 0.7527 0.0000
vt 0.9419 0.7527 0.0000
vt 0.1456 0.7451 0.0000
vt 0.1787 0.7451 0.0000
vt 0.1787 0.9914 0.0000
vt 0.1456 0.9914 0.0000
vt 0.9158 0.2559 0.0000
vt 0.9489 0.2559 0.0000
vt 0.9489 0.5022 0.0000
vt 0.9158 0.5022 0.0000
vt 0.1817 0.7451 0.0000
vt 0.2147 0.7451 0.0000
vt 0.2147 0.9914 0.0000
vt 0.1817 0.9914 0.0000
vt 0.9519 0.2478 0.0000
vt 0.9519 0.0015 0.0000
vt 0.9850 0.0015 0.0000
vt 0.9850 0.2478 0.0000
vt 0.1096 0.9914 0.0000
vt 0.1096 0.7451 0.0000
vt 0.1427 0.7451 0.0000
vt 0.1427 0.9914 0.0000
vt 0.9519 0.4983 0.0000
vt 0.9519 0.2520 0.0000
vt 0.9850 0.2520 0.0000
vt 0.9850 0.4983 0.0000
vt 0.2177 0.9914 0.0000
vt 0.2177 0.7451 0.0000
vt 0.2508 0.7451 0.0000
vt 0.2508 0.9914 0.0000
vt 0.3618 0.9914 0.0000
vt 0.3618 0.7451 0.0000
vt 0.3949 0.7451 0.0000
vt 0.3949 0.9914 0.0000
vt 0.9159 0.2478 0.0000
vt 0.9159 0.0015 0.0000
vt 0.9489 0.0015 0.0000
vt 0.9489 0.2478 0.0000
vt 0.0015 0.9914 0.0000
vt 0.0015 0.7451 0.0000
vt 0.0346 0.7451 0.0000
vt 0.0346 0.9914 0.0000
vt 0.3258 0.9914 0.0000
vt 0.3258 0.7451 0.0000
vt 0.3589 0.7451 0.0000
vt 0.3589 0.9914 0.0000
vt 0.2537 0.7451 0.0000
vt 0.2868 0.7451 0.0000
vt 0.2868 0.9914 0.0000
vt 0.2537 0.9914 0.0000
vt 0.2898 0.7451 0.0000
vt 0.3228 0.7451 0.0000
vt 0.3228 0.9914 0.0000
vt 0.2898 0.9914 0.0000
vt 0.0375 0.7451 0.0000
vt 0.0706 0.7451 0.0000
vt 0.0706 0.9914 0.0000
vt 0.0375 0.9914 0.0000
vt 0.0736 0.7451 0.0000
vt 0.1066 0.7451 0.0000
vt 0.1066 0.9914 0.0000
vt 0.0736 0.9914 0.0000
vt 0.8161 0.7451 0.0000
vt 0.8362 0.7451 0.0000
vt 0.8362 0.7835 0.0000
vt 0.8161 0.7835 0.0000
vt 0.7799 0.5916 0.0000
vt 0.7799 0.0015 0.0000
vt 0.8184 0.0015 0.0000
vt 0.8184 0.5916 0.0000
vt 0.8745 0.7648 0.0000
vt 0.8945 0.7648 0.0000
vt 0.8945 0.8032 0.0000
vt 0.8745 0.8032 0.0000
vt 0.7185 0.5916 0.0000
vt 0.7185 0.0015 0.0000
vt 0.7569 0.0015 0.0000
vt 0.7569 0.5916 0.0000
vt 0.7770 0.5916 0.0000
vt 0.7770 0.0015 0.0000
vt 0.8649 0.5916 0.0000
vt 0.8448 0.5916 0.0000
vt 0.8448 0.0015 0.0000
vt 0.8649 0.0015 0.0000
vt 0.9049 0.7612 0.0000
vt 0.9049 0.7074 0.0000
vt 0.9275 0.7074 0.0000
vt 0.9390 0.7074 0.0000
vt 0.9390 0.7612 0.0000
vt 0.7781 0.6490 0.0000
vt 0.7556 0.6490 0.0000
vt 0.7556 0.5952 0.0000
vt 0.7896 0.5952 0.0000
vt 0.7896 0.6490 0.0000
vt 0.6483 0.9344 0.0000
vt 0.6824 0.9344 0.0000
vt 0.6824 0.9795 0.0000
vt 0.6483 0.9795 0.0000
vt 0.7781 0.7922 0.0000
vt 0.7896 0.7922 0.0000
vt 0.7896 0.8460 0.0000
vt 0.7556 0.8460 0.0000
vt 0.7556 0.7922 0.0000
vt 0.8678 0.0553 0.0000
vt 0.8678 0.0015 0.0000
vt 0.9129 0.0015 0.0000
vt 0.9129 0.0553 0.0000
vt 0.8678 0.2523 0.0000
vt 0.8678 0.1986 0.0000
vt 0.9129 0.1986 0.0000
vt 0.9129 0.2523 0.0000
vt 0.8448 0.6445 0.0000
vt 0.8563 0.6445 0.0000
vt 0.8563 0.6895 0.0000
vt 0.8448 0.6895 0.0000
vt 0.4459 0.8884 0.0000
vt 0.4459 0.7451 0.0000
vt 0.4910 0.7451 0.0000
vt 0.4910 0.8884 0.0000
vt 0.9275 0.5641 0.0000
vt 0.9049 0.5641 0.0000
vt 0.9049 0.5104 0.0000
vt 0.9390 0.5104 0.0000
vt 0.9390 0.5641 0.0000
vt 0.5419 0.7989 0.0000
vt 0.5419 0.7451 0.0000
vt 0.5870 0.7451 0.0000
vt 0.5870 0.7989 0.0000
vt 0.5899 0.7989 0.0000
vt 0.5899 0.7451 0.0000
vt 0.6350 0.7451 0.0000
vt 0.6350 0.7989 0.0000
vt 0.9605 0.7569 0.0000
vt 0.9720 0.7569 0.0000
vt 0.9720 0.8020 0.0000
vt 0.9605 0.8020 0.0000
vt 0.8459 0.9226 0.0000
vt 0.8800 0.9226 0.0000
vt 0.8800 0.9677 0.0000
vt 0.8459 0.9677 0.0000
vt 0.7411 0.6490 0.0000
vt 0.7185 0.6490 0.0000
vt 0.7185 0.5952 0.0000
vt 0.7526 0.5952 0.0000
vt 0.7526 0.6490 0.0000
vt 0.8678 0.7612 0.0000
vt 0.8678 0.7074 0.0000
vt 0.8904 0.7074 0.0000
vt 0.9019 0.7074 0.0000
vt 0.9019 0.7612 0.0000
vt 0.7185 0.8460 0.0000
vt 0.7185 0.7922 0.0000
vt 0.7411 0.7922 0.0000
vt 0.7526 0.7922 0.0000
vt 0.7526 0.8460 0.0000
vt 0.8829 0.9226 0.0000
vt 0.9170 0.9226 0.0000
vt 0.9170 0.9677 0.0000
vt 0.8829 0.9677 0.0000
vt 0.8678 0.2559 0.0000
vt 0.9129 0.2559 0.0000
vt 0.9129 0.3097 0.0000
vt 0.8678 0.3097 0.0000
vt 0.8678 0.4530 0.0000
vt 0.9129 0.4530 0.0000
vt 0.9129 0.5068 0.0000
vt 0.8678 0.5068 0.0000
vt 0.8563 0.6938 0.0000
vt 0.8563 0.7389 0.0000
vt 0.8448 0.7389 0.0000
vt 0.8448 0.6938 0.0000
vt 0.3979 0.7451 0.0000
vt 0.4429 0.7451 0.0000
vt 0.4429 0.8884 0.0000
vt 0.3979 0.8884 0.0000
vt 0.6112 0.9246 0.0000
vt 0.6453 0.9246 0.0000
vt 0.6453 0.9696 0.0000
vt 0.6112 0.9696 0.0000
vt 0.8678 0.5641 0.0000
vt 0.8904 0.5641 0.0000
vt 0.6380 0.7451 0.0000
vt 0.6830 0.7451 0.0000
vt 0.6830 0.7989 0.0000
vt 0.6380 0.7989 0.0000
vt 0.4939 0.7451 0.0000
vt 0.5390 0.7451 0.0000
vt 0.5390 0.7989 0.0000
vt 0.4939 0.7989 0.0000
vt 0.8563 0.5952 0.0000
vt 0.8563 0.6402 0.0000
vt 0.8448 0.6402 0.0000
vt 0.8448 0.5952 0.0000
vt 0.8678 0.5104 0.0000
vt 0.9019 0.5104 0.0000
vt 0.9019 0.5641 0.0000
vt 0.7596 0.9318 0.0000
vt 0.7865 0.9318 0.0000
vt 0.7865 0.9539 0.0000
vt 0.7596 0.9539 0.0000
vt 0.8744 0.8046 0.0000
vt 0.8962 0.8092 0.0000
vt 0.9061 0.8281 0.0000
vt 0.9249 0.8380 0.0000
vt 0.9296 0.8598 0.0000
vt 0.8744 0.8598 0.0000
vt 0.4939 0.8579 0.0000
vt 0.4939 0.8026 0.0000
vt 0.5157 0.8073 0.0000
vt 0.5256 0.8262 0.0000
vt 0.5445 0.8361 0.0000
vt 0.5491 0.8579 0.0000
vt 0.7865 0.8950 0.0000
vt 0.7865 0.9161 0.0000
vt 0.7596 0.9161 0.0000
vt 0.7596 0.8950 0.0000
vt 0.5384 0.8023 0.0000
vt 0.5573 0.8023 0.0000
vt 0.5573 0.8291 0.0000
vt 0.5384 0.8291 0.0000
vt 0.5815 0.9716 0.0000
vt 0.5815 0.9496 0.0000
vt 0.6083 0.9496 0.0000
vt 0.6083 0.9716 0.0000
vt 0.6648 0.8618 0.0000
vt 0.6096 0.8618 0.0000
vt 0.6096 0.8066 0.0000
vt 0.6314 0.8112 0.0000
vt 0.6413 0.8301 0.0000
vt 0.6602 0.8400 0.0000
vt 0.9575 0.8145 0.0000
vt 0.9023 0.8145 0.0000
vt 0.9069 0.7927 0.0000
vt 0.9258 0.7828 0.0000
vt 0.9357 0.7639 0.0000
vt 0.9575 0.7592 0.0000
vt 0.6083 0.9338 0.0000
vt 0.5815 0.9338 0.0000
vt 0.5815 0.9127 0.0000
vt 0.6083 0.9127 0.0000
vt 0.8648 0.8891 0.0000
vt 0.8648 0.9159 0.0000
vt 0.8459 0.9159 0.0000
vt 0.8459 0.8891 0.0000
vt 0.9624 0.9499 0.0000
vt 0.9624 0.9381 0.0000
vt 0.9892 0.9381 0.0000
vt 0.9892 0.9499 0.0000
vt 0.6066 0.8066 0.0000
vt 0.6066 0.8618 0.0000
vt 0.5514 0.8618 0.0000
vt 0.5561 0.8400 0.0000
vt 0.5749 0.8301 0.0000
vt 0.5848 0.8112 0.0000
vt 0.9326 0.8756 0.0000
vt 0.9326 0.8204 0.0000
vt 0.9544 0.8250 0.0000
vt 0.9643 0.8439 0.0000
vt 0.9832 0.8538 0.0000
vt 0.9879 0.8756 0.0000
vt 0.9892 0.9170 0.0000
vt 0.9624 0.9170 0.0000
vt 0.9624 0.9013 0.0000
vt 0.9892 0.9013 0.0000
vt 0.9624 0.8792 0.0000
vt 0.9892 0.8792 0.0000
vt 0.5226 0.9717 0.0000
vt 0.5494 0.9717 0.0000
vt 0.5494 0.9835 0.0000
vt 0.5226 0.9835 0.0000
vt 0.8162 0.8263 0.0000
vt 0.8208 0.8045 0.0000
vt 0.8397 0.7946 0.0000
vt 0.8496 0.7757 0.0000
vt 0.8714 0.7711 0.0000
vt 0.8714 0.8263 0.0000
vt 0.6678 0.8717 0.0000
vt 0.6678 0.8164 0.0000
vt 0.6896 0.8211 0.0000
vt 0.6995 0.8400 0.0000
vt 0.7184 0.8499 0.0000
vt 0.7231 0.8717 0.0000
vt 0.5494 0.9348 0.0000
vt 0.5494 0.9505 0.0000
vt 0.5226 0.9505 0.0000
vt 0.5226 0.9348 0.0000
vt 0.5226 0.9127 0.0000
vt 0.5494 0.9127 0.0000
vt 0.5333 0.9048 0.0000
vt 0.4939 0.9206 0.0000
vt 0.4939 0.8654 0.0000
vt 0.5491 0.8654 0.0000
vt 0.6117 0.9213 0.0000
vt 0.6117 0.8661 0.0000
vt 0.6511 0.8820 0.0000
vt 0.6669 0.9213 0.0000
vt 0.4568 0.9728 0.0000
vt 0.4568 0.9433 0.0000
vt 0.4836 0.9433 0.0000
vt 0.4836 0.9728 0.0000
vt 0.4568 0.9009 0.0000
vt 0.4836 0.9009 0.0000
vt 0.8161 0.8858 0.0000
vt 0.8161 0.8306 0.0000
vt 0.8555 0.8465 0.0000
vt 0.8714 0.8858 0.0000
vt 0.7655 0.8890 0.0000
vt 0.7261 0.9049 0.0000
vt 0.7261 0.8496 0.0000
vt 0.7813 0.8496 0.0000
vt 0.6860 0.7875 0.0000
vt 0.7128 0.7875 0.0000
vt 0.7128 0.8170 0.0000
vt 0.6860 0.8170 0.0000
vt 0.6860 0.7451 0.0000
vt 0.7128 0.7451 0.0000
vt 0.8743 0.9194 0.0000
vt 0.8743 0.8641 0.0000
vt 0.9137 0.8800 0.0000
vt 0.9296 0.9194 0.0000
vt 0.4372 0.9403 0.0000
vt 0.3979 0.9561 0.0000
vt 0.3979 0.9009 0.0000
vt 0.4531 0.9009 0.0000
vt 0.8161 0.9315 0.0000
vt 0.8429 0.9315 0.0000
vt 0.8429 0.9609 0.0000
vt 0.8161 0.9609 0.0000
vt 0.8161 0.8891 0.0000
vt 0.8429 0.8891 0.0000
vt 0.5922 0.9048 0.0000
vt 0.5528 0.9206 0.0000
vt 0.5528 0.8654 0.0000
vt 0.6080 0.8654 0.0000
vt 0.6699 0.9312 0.0000
vt 0.6699 0.8760 0.0000
vt 0.7093 0.8918 0.0000
vt 0.7252 0.9312 0.0000
vt 0.9326 0.9511 0.0000
vt 0.9326 0.9216 0.0000
vt 0.9594 0.9216 0.0000
vt 0.9594 0.9511 0.0000
vt 0.9326 0.8792 0.0000
vt 0.9594 0.8792 0.0000
# 368 texture coords

o Ready_Table
g Ready_Table
usemtl WoodenTable_default
s 1
f 1/1/1 2/2/1 3/3/1 
f 3/3/1 4/4/1 1/1/1 
f 2/5/2 5/6/2 6/7/2 
f 6/7/2 3/8/2 2/5/2 
f 5/9/3 7/10/3 8/11/3 
f 8/11/3 6/12/3 5/9/3 
f 7/13/4 1/14/4 4/15/4 
f 4/15/4 8/16/4 7/13/4 
f 6/17/5 8/18/5 4/19/5 
f 4/19/5 3/20/5 6/17/5 
f 2/5/6 1/21/6 7/22/6 
f 7/22/6 5/6/6 2/5/6 
f 9/23/1 10/24/1 11/25/1 
f 11/25/1 12/26/1 9/23/1 
f 10/27/2 13/28/2 14/29/2 
f 14/29/2 11/30/2 10/27/2 
f 13/31/3 15/32/3 16/33/3 
f 16/33/3 14/34/3 13/31/3 
f 15/35/4 9/36/4 12/37/4 
f 12/37/4 16/38/4 15/35/4 
f 17/39/3 18/40/3 19/41/3 
f 19/41/3 20/42/3 17/39/3 
f 21/43/2 22/44/2 18/45/2 
f 18/45/2 17/46/2 21/43/2 
f 23/47/1 24/48/1 22/49/1 
f 22/49/1 21/50/1 23/47/1 
f 20/51/4 19/52/4 24/53/4 
f 24/53/4 23/54/4 20/51/4 
f 25/55/1 26/56/1 27/57/1 
f 27/57/1 28/58/1 25/55/1 
f 29/59/4 30/60/4 26/61/4 
f 26/61/4 25/62/4 29/59/4 
f 31/63/3 32/64/3 30/65/3 
f 30/65/3 29/66/3 31/63/3 
f 28/67/2 27/68/2 32/69/2 
f 32/69/2 31/70/2 28/67/2 
f 33/71/3 34/72/3 35/73/3 
f 35/73/3 36/74/3 33/71/3 
f 34/75/4 37/76/4 38/77/4 
f 38/77/4 35/78/4 34/75/4 
f 37/79/1 39/80/1 40/81/1 
f 40/81/1 38/82/1 37/79/1 
f 39/83/2 33/84/2 36/85/2 
f 36/85/2 40/86/2 39/83/2 
f 41/87/1 42/88/1 43/89/1 
f 43/89/1 44/90/1 41/87/1 
f 42/91/2 45/92/2 46/93/2 
f 46/93/2 43/94/2 42/91/2 
f 45/95/3 47/96/3 48/97/3 
f 48/97/3 46/98/3 45/95/3 
f 47/99/4 41/100/4 44/101/4 
f 44/101/4 48/102/4 47/99/4 
f 46/103/5 48/102/5 44/101/5 
f 44/101/5 43/104/5 46/103/5 
f 42/105/6 41/106/6 47/107/6 
f 47/107/6 45/108/6 42/105/6 
f 49/109/3 50/110/3 51/111/3 
f 49/109/3 51/111/3 52/112/3 
f 49/109/3 52/112/3 53/113/3 
f 54/114/1 55/115/1 56/116/1 
f 54/114/1 56/116/1 57/117/1 
f 54/114/1 57/117/1 58/118/1 
f 59/119/4 60/120/4 61/121/4 
f 61/121/4 62/122/4 59/119/4 
f 63/123/1 64/124/1 60/125/1 
f 63/123/1 60/125/1 59/126/1 
f 63/123/1 59/126/1 65/127/1 
f 65/128/6 59/129/6 62/130/6 
f 62/130/6 66/131/6 65/128/6 
f 56/132/6 55/133/6 50/134/6 
f 50/134/6 49/135/6 56/132/6 
f 55/133/6 65/128/6 66/131/6 
f 66/131/6 50/134/6 55/133/6 
f 54/136/4 58/137/4 52/138/4 
f 52/138/4 51/139/4 54/136/4 
f 51/140/5 67/141/5 63/142/5 
f 63/142/5 54/143/5 51/140/5 
f 67/144/3 66/145/3 62/146/3 
f 67/144/3 62/146/3 61/147/3 
f 67/144/3 61/147/3 68/148/3 
f 50/110/3 66/145/3 67/144/3 
f 67/144/3 51/111/3 50/110/3 
f 65/127/1 55/115/1 54/114/1 
f 54/114/1 63/123/1 65/127/1 
f 68/149/5 61/150/5 60/151/5 
f 60/151/5 64/152/5 68/149/5 
f 53/153/5 52/154/5 58/155/5 
f 58/155/5 57/156/5 53/153/5 
f 67/157/2 68/158/2 64/159/2 
f 64/159/2 63/160/2 67/157/2 
f 69/161/2 70/162/2 71/163/2 
f 71/163/2 72/164/2 69/161/2 
f 73/165/1 74/166/1 72/167/1 
f 73/165/1 72/167/1 71/168/1 
f 73/165/1 71/168/1 75/169/1 
f 69/170/3 76/171/3 77/172/3 
f 69/170/3 77/172/3 78/173/3 
f 69/170/3 78/173/3 70/174/3 
f 79/175/1 80/176/1 81/177/1 
f 79/175/1 81/177/1 82/178/1 
f 79/175/1 82/178/1 83/179/1 
f 79/180/4 83/181/4 84/182/4 
f 84/182/4 85/183/4 79/180/4 
f 79/184/6 85/185/6 86/186/6 
f 86/186/6 80/187/6 79/184/6 
f 74/188/6 76/189/6 69/190/6 
f 69/190/6 72/191/6 74/188/6 
f 80/187/6 86/186/6 76/189/6 
f 76/189/6 74/188/6 80/187/6 
f 75/192/4 78/193/4 77/194/4 
f 77/194/4 73/195/4 75/192/4 
f 87/196/5 81/197/5 73/198/5 
f 73/198/5 77/199/5 87/196/5 
f 49/200/2 53/201/2 57/202/2 
f 57/202/2 56/203/2 49/200/2 
f 81/177/1 80/176/1 74/166/1 
f 74/166/1 73/165/1 81/177/1 
f 77/172/3 76/171/3 86/204/3 
f 86/204/3 87/205/3 77/172/3 
f 84/206/5 83/207/5 82/208/5 
f 82/208/5 88/209/5 84/206/5 
f 78/210/5 75/211/5 71/212/5 
f 71/212/5 70/213/5 78/210/5 
f 88/214/2 82/215/2 81/216/2 
f 81/216/2 87/217/2 88/214/2 
f 85/218/3 84/219/3 88/220/3 
f 85/218/3 88/220/3 87/205/3 
f 85/218/3 87/205/3 86/204/3 
f 89/221/7 90/222/7 91/223/7 
f 91/223/7 92/224/7 89/221/7 
f 91/225/3 90/226/3 93/227/3 
f 93/227/3 94/228/3 95/229/3 
f 91/225/3 93/227/3 95/229/3 
f 91/225/3 95/229/3 96/230/3 
f 97/231/1 98/232/1 99/233/1 
f 97/231/1 99/233/1 100/234/1 
f 97/231/1 100/234/1 89/235/1 
f 97/231/1 89/235/1 92/236/1 
f 94/237/8 93/238/8 100/239/8 
f 100/239/8 99/240/8 94/237/8 
f 93/238/9 90/222/9 89/221/9 
f 89/221/9 100/239/9 93/238/9 
f 99/241/10 98/242/10 95/243/10 
f 95/243/10 94/244/10 99/241/10 
f 101/245/7 102/246/7 103/247/7 
f 103/247/7 104/248/7 101/245/7 
f 101/249/1 105/250/1 106/251/1 
f 106/251/1 107/252/1 108/253/1 
f 101/249/1 106/251/1 108/253/1 
f 101/249/1 108/253/1 102/254/1 
f 109/255/3 104/256/3 103/257/3 
f 109/255/3 103/257/3 110/258/3 
f 109/255/3 110/258/3 111/259/3 
f 109/255/3 111/259/3 112/260/3 
f 110/261/8 108/262/8 107/263/8 
f 107/263/8 111/264/8 110/261/8 
f 103/247/9 102/246/9 108/262/9 
f 108/262/9 110/261/9 103/247/9 
f 106/265/10 112/266/10 111/267/10 
f 111/267/10 107/268/10 106/265/10 
f 113/269/11 114/270/11 115/271/11 
f 115/271/11 116/272/11 113/269/11 
f 113/273/3 117/274/3 118/275/3 
f 118/275/3 119/276/3 120/277/3 
f 113/273/3 118/275/3 120/277/3 
f 113/273/3 120/277/3 114/278/3 
f 121/279/1 116/280/1 115/281/1 
f 121/279/1 115/281/1 122/282/1 
f 121/279/1 122/282/1 123/283/1 
f 121/279/1 123/283/1 124/284/1 
f 122/285/12 120/286/12 119/287/12 
f 119/287/12 123/288/12 122/285/12 
f 115/271/13 114/270/13 120/286/13 
f 120/286/13 122/285/13 115/271/13 
f 118/289/14 124/290/14 123/288/14 
f 123/288/14 119/287/14 118/289/14 
f 125/291/11 126/292/11 127/293/11 
f 127/293/11 128/294/11 125/291/11 
f 127/295/1 126/296/1 129/297/1 
f 129/297/1 130/298/1 131/299/1 
f 127/295/1 129/297/1 131/299/1 
f 127/295/1 131/299/1 132/300/1 
f 133/301/3 134/302/3 135/303/3 
f 133/301/3 135/303/3 136/304/3 
f 133/301/3 136/304/3 125/305/3 
f 133/301/3 125/305/3 128/306/3 
f 130/307/12 129/308/12 136/309/12 
f 136/309/12 135/310/12 130/307/12 
f 129/308/13 126/292/13 125/291/13 
f 125/291/13 136/309/13 129/308/13 
f 135/310/14 134/311/14 131/312/14 
f 131/312/14 130/307/14 135/310/14 
f 137/313/3 138/314/3 139/315/3 
f 139/315/3 140/316/3 137/313/3 
f 141/317/1 142/318/1 143/319/1 
f 143/319/1 144/320/1 141/317/1 
f 144/321/15 143/322/15 137/323/15 
f 137/323/15 140/324/15 144/321/15 
f 143/322/16 142/325/16 138/326/16 
f 138/326/16 137/323/16 143/322/16 
f 145/327/1 146/328/1 147/329/1 
f 147/329/1 148/330/1 145/327/1 
f 149/331/3 150/332/3 151/333/3 
f 151/333/3 152/334/3 149/331/3 
f 147/335/15 149/336/15 152/337/15 
f 152/337/15 148/338/15 147/335/15 
f 146/339/16 150/340/16 149/336/16 
f 149/336/16 147/335/16 146/339/16 
f 153/341/3 154/342/3 155/343/3 
f 155/343/3 156/344/3 153/341/3 
f 157/345/1 158/346/1 159/347/1 
f 159/347/1 160/348/1 157/345/1 
f 155/349/17 157/350/17 160/351/17 
f 160/351/17 156/352/17 155/349/17 
f 154/353/18 158/354/18 157/350/18 
f 157/350/18 155/349/18 154/353/18 
f 161/355/1 162/356/1 163/357/1 
f 163/357/1 164/358/1 161/355/1 
f 165/359/3 166/360/3 167/361/3 
f 167/361/3 168/362/3 165/359/3 
f 168/363/17 167/364/17 161/365/17 
f 161/365/17 164/366/17 168/363/17 
f 167/364/18 166/367/18 162/368/18 
f 162/368/18 161/365/18 167/364/18 
# 224 faces

