# 3ds Max Wavefront OBJ Exporter v0.99 - (c)2007 guruware
# File Created: 12.12.2023 18:22:21

mtllib ending_board.mtl

#
# object Plane001
#

v  -48.8227 12.4628 -867.3622
v  -48.8227 6.9654 -867.3622
v  -48.8227 12.4628 -871.1610
v  -48.8227 6.9654 -871.1610
v  -48.8227 12.4628 -874.9599
v  -48.8227 6.9654 -874.9599
v  -48.8227 12.4628 -878.7588
v  -48.8227 6.9654 -878.7588
v  -48.8227 12.4628 -882.5576
v  -48.8227 6.9654 -882.5576
v  -48.8227 17.9603 -867.3622
v  -48.8227 17.9603 -871.1610
v  -48.8227 17.9603 -874.9599
v  -48.8227 17.9603 -878.7588
v  -48.8227 17.9603 -882.5576
v  -48.8227 23.4577 -867.3622
v  -48.8227 23.4577 -871.1610
v  -48.8227 23.4577 -874.9599
v  -48.8227 23.4577 -878.7588
v  -48.8227 23.4577 -882.5576
v  -48.8227 28.9551 -867.3622
v  -48.8227 28.9551 -871.1610
v  -48.8227 28.9551 -874.9599
v  -48.8227 28.9551 -878.7588
v  -48.8227 28.9551 -882.5576
# 25 vertices

vn 1.0000 -0.0000 -0.0000
# 1 vertex normals

vt 0.0000 0.2500 0.0000
vt 0.0000 0.0000 0.0000
vt 0.2500 0.2500 0.0000
vt 0.2500 0.0000 0.0000
vt 0.5000 0.2500 0.0000
vt 0.5000 0.0000 0.0000
vt 0.7500 0.2500 0.0000
vt 0.7500 0.0000 0.0000
vt 1.0000 0.2500 0.0000
vt 1.0000 0.0000 0.0000
vt 0.0000 0.5000 0.0000
vt 0.2500 0.5000 0.0000
vt 0.5000 0.5000 0.0000
vt 0.7500 0.5000 0.0000
vt 1.0000 0.5000 0.0000
vt 0.0000 0.7500 0.0000
vt 0.2500 0.7500 0.0000
vt 0.5000 0.7500 0.0000
vt 0.7500 0.7500 0.0000
vt 1.0000 0.7500 0.0000
vt 0.0000 1.0000 0.0000
vt 0.2500 1.0000 0.0000
vt 0.5000 1.0000 0.0000
vt 0.7500 1.0000 0.0000
vt 1.0000 1.0000 0.0000
# 25 texture coords

o Plane001
g Plane001
usemtl Material__29
s 1
f 1/1/1 2/2/1 3/3/1 
f 4/4/1 3/3/1 2/2/1 
f 3/3/1 4/4/1 5/5/1 
f 6/6/1 5/5/1 4/4/1 
f 5/5/1 6/6/1 7/7/1 
f 8/8/1 7/7/1 6/6/1 
f 7/7/1 8/8/1 9/9/1 
f 10/10/1 9/9/1 8/8/1 
f 11/11/1 1/1/1 12/12/1 
f 3/3/1 12/12/1 1/1/1 
f 12/12/1 3/3/1 13/13/1 
f 5/5/1 13/13/1 3/3/1 
f 13/13/1 5/5/1 14/14/1 
f 7/7/1 14/14/1 5/5/1 
f 14/14/1 7/7/1 15/15/1 
f 9/9/1 15/15/1 7/7/1 
f 16/16/1 11/11/1 17/17/1 
f 12/12/1 17/17/1 11/11/1 
f 17/17/1 12/12/1 18/18/1 
f 13/13/1 18/18/1 12/12/1 
f 18/18/1 13/13/1 19/19/1 
f 14/14/1 19/19/1 13/13/1 
f 19/19/1 14/14/1 20/20/1 
f 15/15/1 20/20/1 14/14/1 
f 21/21/1 16/16/1 22/22/1 
f 17/17/1 22/22/1 16/16/1 
f 22/22/1 17/17/1 23/23/1 
f 18/18/1 23/23/1 17/17/1 
f 23/23/1 18/18/1 24/24/1 
f 19/19/1 24/24/1 18/18/1 
f 24/24/1 19/19/1 25/25/1 
f 20/20/1 25/25/1 19/19/1 
# 32 faces

