# 3ds Max Wavefront OBJ Exporter v0.99 - (c)2007 guruware
# File Created: 05.12.2023 23:01:07

mtllib ??? in ?\q_upper.mtl

#
# object Sphere002
#

v  -260.0000 17.4599 -560.0000
v  -260.0000 17.2947 -561.0430
v  -260.3223 17.2947 -560.9919
v  -260.6131 17.2947 -560.8438
v  -260.8438 17.2947 -560.6130
v  -260.9919 17.2947 -560.3223
v  -261.0430 17.2947 -560.0000
v  -260.9919 17.2947 -559.6777
v  -260.8438 17.2947 -559.3870
v  -260.6130 17.2947 -559.1562
v  -260.3223 17.2947 -559.0081
v  -260.0000 17.2947 -558.9570
v  -259.6777 17.2947 -559.0081
v  -259.3869 17.2947 -559.1562
v  -259.1562 17.2947 -559.3870
v  -259.0081 17.2947 -559.6777
v  -258.9570 17.2947 -560.0000
v  -259.0081 17.2947 -560.3223
v  -259.1562 17.2947 -560.6130
v  -259.3870 17.2947 -560.8438
v  -259.6777 17.2947 -560.9919
v  -260.6131 16.8153 -561.8868
v  -260.0000 16.8153 -561.9839
v  -261.1661 16.8153 -561.6050
v  -261.6050 16.8153 -561.1661
v  -261.8867 16.8153 -560.6130
v  -261.9839 16.8153 -560.0000
v  -261.8867 16.8153 -559.3870
v  -261.6050 16.8153 -558.8339
v  -261.1661 16.8153 -558.3950
v  -260.6130 16.8153 -558.1132
v  -260.0000 16.8153 -558.0161
v  -259.3869 16.8153 -558.1132
v  -258.8339 16.8153 -558.3950
v  -258.3950 16.8153 -558.8339
v  -258.1133 16.8153 -559.3870
v  -258.0161 16.8153 -560.0000
v  -258.1133 16.8153 -560.6130
v  -258.3950 16.8153 -561.1661
v  -258.8339 16.8153 -561.6050
v  -259.3870 16.8153 -561.8868
v  -260.8438 16.0686 -562.5969
v  -260.0000 16.0686 -562.7305
v  -261.6050 16.0686 -562.2090
v  -262.2091 16.0686 -561.6050
v  -262.5969 16.0686 -560.8438
v  -262.7306 16.0686 -560.0000
v  -262.5969 16.0686 -559.1562
v  -262.2091 16.0686 -558.3950
v  -261.6050 16.0686 -557.7910
v  -260.8438 16.0686 -557.4031
v  -260.0000 16.0686 -557.2695
v  -259.1562 16.0686 -557.4031
v  -258.3950 16.0686 -557.7910
v  -257.7909 16.0686 -558.3950
v  -257.4031 16.0686 -559.1562
v  -257.2694 16.0686 -560.0000
v  -257.4031 16.0686 -560.8438
v  -257.7909 16.0686 -561.6050
v  -258.3950 16.0686 -562.2090
v  -259.1562 16.0686 -562.5969
v  -260.9919 15.1277 -563.0529
v  -260.0000 15.1277 -563.2100
v  -261.8867 15.1277 -562.5969
v  -262.5969 15.1277 -561.8868
v  -263.0529 15.1277 -560.9919
v  -263.2100 15.1277 -560.0000
v  -263.0529 15.1277 -559.0081
v  -262.5969 15.1277 -558.1132
v  -261.8867 15.1277 -557.4031
v  -260.9919 15.1277 -556.9471
v  -260.0000 15.1277 -556.7900
v  -259.0081 15.1277 -556.9471
v  -258.1132 15.1277 -557.4031
v  -257.4031 15.1277 -558.1132
v  -256.9471 15.1277 -559.0081
v  -256.7900 15.1277 -560.0000
v  -256.9471 15.1277 -560.9919
v  -257.4031 15.1277 -561.8868
v  -258.1133 15.1277 -562.5969
v  -259.0081 15.1277 -563.0529
v  -261.9839 14.0848 -562.7305
v  -261.0430 14.0848 -563.2100
v  -263.3752 14.0848 -560.0000
v  -263.2100 14.0848 -561.0430
v  -261.9839 14.0848 -557.2695
v  -262.7306 14.0848 -558.0161
v  -260.0000 14.0848 -556.6248
v  -261.0430 14.0848 -556.7900
v  -258.0161 14.0848 -557.2695
v  -258.9570 14.0848 -556.7900
v  -257.2694 14.0848 -558.0161
v  -257.2694 14.0848 -561.9839
v  -256.7900 14.0848 -561.0430
v  -260.0000 14.0848 -563.3752
v  -258.9570 14.0848 -563.2100
# 96 vertices

vn 0.0000 1.0000 -0.0000
vn 0.0000 0.9464 -0.3230
vn -0.0998 0.9464 -0.3072
vn -0.1899 0.9464 -0.2613
vn -0.2613 0.9464 -0.1899
vn -0.3072 0.9464 -0.0998
vn -0.3230 0.9464 -0.0000
vn -0.3072 0.9464 0.0998
vn -0.2613 0.9464 0.1899
vn -0.1899 0.9464 0.2613
vn -0.0998 0.9464 0.3072
vn 0.0000 0.9464 0.3230
vn 0.0998 0.9464 0.3072
vn 0.1899 0.9464 0.2613
vn 0.2613 0.9464 0.1899
vn 0.3072 0.9464 0.0998
vn 0.3230 0.9464 -0.0000
vn 0.3072 0.9464 -0.0998
vn 0.2613 0.9464 -0.1899
vn 0.1899 0.9464 -0.2613
vn 0.0998 0.9464 -0.3072
vn -0.1847 0.8016 -0.5686
vn 0.0000 0.8016 -0.5978
vn -0.3514 0.8016 -0.4837
vn -0.4837 0.8016 -0.3514
vn -0.5686 0.8016 -0.1847
vn -0.5978 0.8016 -0.0000
vn -0.5686 0.8016 0.1847
vn -0.4837 0.8016 0.3514
vn -0.3514 0.8016 0.4837
vn -0.1847 0.8016 0.5686
vn 0.0000 0.8016 0.5978
vn 0.1847 0.8016 0.5686
vn 0.3514 0.8016 0.4837
vn 0.4837 0.8016 0.3514
vn 0.5686 0.8016 0.1847
vn 0.5978 0.8016 -0.0000
vn 0.5686 0.8016 -0.1847
vn 0.4837 0.8016 -0.3514
vn 0.3514 0.8016 -0.4837
vn 0.1847 0.8016 -0.5686
vn -0.2516 0.5805 -0.7744
vn 0.0000 0.5805 -0.8143
vn -0.4786 0.5805 -0.6588
vn -0.6588 0.5805 -0.4786
vn -0.7744 0.5805 -0.2516
vn -0.8143 0.5805 -0.0000
vn -0.7744 0.5805 0.2516
vn -0.6588 0.5805 0.4786
vn -0.4786 0.5805 0.6588
vn -0.2516 0.5805 0.7744
vn 0.0000 0.5805 0.8143
vn 0.2516 0.5805 0.7744
vn 0.4786 0.5805 0.6588
vn 0.6588 0.5805 0.4786
vn 0.7744 0.5805 0.2516
vn 0.8143 0.5805 -0.0000
vn 0.7744 0.5805 -0.2516
vn 0.6588 0.5805 -0.4786
vn 0.4786 0.5805 -0.6588
vn 0.2516 0.5805 -0.7744
vn -0.3406 0.3543 -0.8709
vn 0.0548 0.3543 -0.9335
vn -0.5044 0.3543 -0.7874
vn -0.7208 0.4540 -0.5237
vn -0.9048 0.3543 -0.2364
vn -0.9335 0.3543 -0.0548
vn -0.8474 0.4540 0.2753
vn -0.7231 0.3543 0.5930
vn -0.5930 0.3543 0.7231
vn -0.2364 0.3543 0.9048
vn -0.0548 0.3543 0.9335
vn 0.3406 0.3543 0.8709
vn 0.5599 0.3045 0.7706
vn 0.7231 0.3543 0.5930
vn 0.8474 0.4540 0.2753
vn 0.8910 0.4540 -0.0000
vn 0.8709 0.3543 -0.3406
vn 0.7874 0.3543 -0.5044
vn 0.5237 0.4540 -0.7208
vn 0.2364 0.3543 -0.9048
vn -0.4485 0.1546 -0.8803
vn -0.9758 0.1546 -0.1546
vn -0.6986 0.1546 0.6986
vn -0.1546 0.1546 0.9758
vn 0.5805 0.1564 0.7991
vn 0.4485 0.1546 0.8803
vn 0.6986 0.1546 0.6986
vn 0.8803 0.1546 -0.4485
vn 0.1546 0.1546 -0.9758
# 90 vertex normals

vt 0.0000 1.0000 0.0000
vt 0.0000 0.9000 0.0000
vt 0.0500 0.9000 0.0000
vt 0.0500 1.0000 0.0000
vt 0.1000 0.9000 0.0000
vt 0.1000 1.0000 0.0000
vt 0.1500 0.9000 0.0000
vt 0.1500 1.0000 0.0000
vt 0.2000 0.9000 0.0000
vt 0.2000 1.0000 0.0000
vt 0.2500 0.9000 0.0000
vt 0.2500 1.0000 0.0000
vt 0.3000 0.9000 0.0000
vt 0.3000 1.0000 0.0000
vt 0.3500 0.9000 0.0000
vt 0.3500 1.0000 0.0000
vt 0.4000 0.9000 0.0000
vt 0.4000 1.0000 0.0000
vt 0.4500 0.9000 0.0000
vt 0.4500 1.0000 0.0000
vt 0.5000 0.9000 0.0000
vt 0.5000 1.0000 0.0000
vt 0.5500 0.9000 0.0000
vt 0.5500 1.0000 0.0000
vt 0.6000 0.9000 0.0000
vt 0.6000 1.0000 0.0000
vt 0.6500 0.9000 0.0000
vt 0.6500 1.0000 0.0000
vt 0.7000 0.9000 0.0000
vt 0.7000 1.0000 0.0000
vt 0.7500 0.9000 0.0000
vt 0.7500 1.0000 0.0000
vt 0.8000 0.9000 0.0000
vt 0.8000 1.0000 0.0000
vt 0.8500 0.9000 0.0000
vt 0.8500 1.0000 0.0000
vt 0.9000 0.9000 0.0000
vt 0.9000 1.0000 0.0000
vt 0.9500 0.9000 0.0000
vt 0.9500 1.0000 0.0000
vt 1.0000 0.9000 0.0000
vt 0.0500 0.8000 0.0000
vt 0.0000 0.8000 0.0000
vt 0.1000 0.8000 0.0000
vt 0.1500 0.8000 0.0000
vt 0.2000 0.8000 0.0000
vt 0.2500 0.8000 0.0000
vt 0.3000 0.8000 0.0000
vt 0.3500 0.8000 0.0000
vt 0.4000 0.8000 0.0000
vt 0.4500 0.8000 0.0000
vt 0.5000 0.8000 0.0000
vt 0.5500 0.8000 0.0000
vt 0.6000 0.8000 0.0000
vt 0.6500 0.8000 0.0000
vt 0.7000 0.8000 0.0000
vt 0.7500 0.8000 0.0000
vt 0.8000 0.8000 0.0000
vt 0.8500 0.8000 0.0000
vt 0.9000 0.8000 0.0000
vt 0.9500 0.8000 0.0000
vt 1.0000 0.8000 0.0000
vt 0.0500 0.7000 0.0000
vt 0.0000 0.7000 0.0000
vt 0.1000 0.7000 0.0000
vt 0.1500 0.7000 0.0000
vt 0.2000 0.7000 0.0000
vt 0.2500 0.7000 0.0000
vt 0.3000 0.7000 0.0000
vt 0.3500 0.7000 0.0000
vt 0.4000 0.7000 0.0000
vt 0.4500 0.7000 0.0000
vt 0.5000 0.7000 0.0000
vt 0.5500 0.7000 0.0000
vt 0.6000 0.7000 0.0000
vt 0.6500 0.7000 0.0000
vt 0.7000 0.7000 0.0000
vt 0.7500 0.7000 0.0000
vt 0.8000 0.7000 0.0000
vt 0.8500 0.7000 0.0000
vt 0.9000 0.7000 0.0000
vt 0.9500 0.7000 0.0000
vt 1.0000 0.7000 0.0000
vt 0.0500 0.6000 0.0000
vt 0.0000 0.6000 0.0000
vt 0.1000 0.6000 0.0000
vt 0.1500 0.6000 0.0000
vt 0.2000 0.6000 0.0000
vt 0.2500 0.6000 0.0000
vt 0.3000 0.6000 0.0000
vt 0.3500 0.6000 0.0000
vt 0.4000 0.6000 0.0000
vt 0.4500 0.6000 0.0000
vt 0.5000 0.6000 0.0000
vt 0.5500 0.6000 0.0000
vt 0.6000 0.6000 0.0000
vt 0.6500 0.6000 0.0000
vt 0.7000 0.6000 0.0000
vt 0.7500 0.6000 0.0000
vt 0.8000 0.6000 0.0000
vt 0.8500 0.6000 0.0000
vt 0.9000 0.6000 0.0000
vt 0.9500 0.6000 0.0000
vt 1.0000 0.6000 0.0000
vt 0.1000 0.5000 0.0000
vt 0.0500 0.5000 0.0000
vt 0.2500 0.5000 0.0000
vt 0.2000 0.5000 0.0000
vt 0.4000 0.5000 0.0000
vt 0.3500 0.5000 0.0000
vt 0.5000 0.5000 0.0000
vt 0.4500 0.5000 0.0000
vt 0.6000 0.5000 0.0000
vt 0.5500 0.5000 0.0000
vt 0.6500 0.5000 0.0000
vt 0.8500 0.5000 0.0000
vt 0.8000 0.5000 0.0000
vt 1.0000 0.5000 0.0000
vt 0.9500 0.5000 0.0000
# 119 texture coords

o Sphere002
g Sphere002
usemtl ?_??_upper_wire_153228153
s 1
f 1/1/1 2/2/2 3/3/3 
f 1/4/1 3/3/3 4/5/4 
f 1/6/1 4/5/4 5/7/5 
f 1/8/1 5/7/5 6/9/6 
f 1/10/1 6/9/6 7/11/7 
f 1/12/1 7/11/7 8/13/8 
f 1/14/1 8/13/8 9/15/9 
f 1/16/1 9/15/9 10/17/10 
f 1/18/1 10/17/10 11/19/11 
f 1/20/1 11/19/11 12/21/12 
f 1/22/1 12/21/12 13/23/13 
f 1/24/1 13/23/13 14/25/14 
f 1/26/1 14/25/14 15/27/15 
f 1/28/1 15/27/15 16/29/16 
f 1/30/1 16/29/16 17/31/17 
f 1/32/1 17/31/17 18/33/18 
f 1/34/1 18/33/18 19/35/19 
f 1/36/1 19/35/19 20/37/20 
f 1/38/1 20/37/20 21/39/21 
f 1/40/1 21/39/21 2/41/2 
f 22/42/22 3/3/3 2/2/2 
f 2/2/2 23/43/23 22/42/22 
f 24/44/24 4/5/4 3/3/3 
f 3/3/3 22/42/22 24/44/24 
f 25/45/25 5/7/5 4/5/4 
f 4/5/4 24/44/24 25/45/25 
f 26/46/26 6/9/6 5/7/5 
f 5/7/5 25/45/25 26/46/26 
f 27/47/27 7/11/7 6/9/6 
f 6/9/6 26/46/26 27/47/27 
f 28/48/28 8/13/8 7/11/7 
f 7/11/7 27/47/27 28/48/28 
f 29/49/29 9/15/9 8/13/8 
f 8/13/8 28/48/28 29/49/29 
f 30/50/30 10/17/10 9/15/9 
f 9/15/9 29/49/29 30/50/30 
f 31/51/31 11/19/11 10/17/10 
f 10/17/10 30/50/30 31/51/31 
f 32/52/32 12/21/12 11/19/11 
f 11/19/11 31/51/31 32/52/32 
f 33/53/33 13/23/13 12/21/12 
f 12/21/12 32/52/32 33/53/33 
f 34/54/34 14/25/14 13/23/13 
f 13/23/13 33/53/33 34/54/34 
f 35/55/35 15/27/15 14/25/14 
f 14/25/14 34/54/34 35/55/35 
f 36/56/36 16/29/16 15/27/15 
f 15/27/15 35/55/35 36/56/36 
f 37/57/37 17/31/17 16/29/16 
f 16/29/16 36/56/36 37/57/37 
f 38/58/38 18/33/18 17/31/17 
f 17/31/17 37/57/37 38/58/38 
f 39/59/39 19/35/19 18/33/18 
f 18/33/18 38/58/38 39/59/39 
f 40/60/40 20/37/20 19/35/19 
f 19/35/19 39/59/39 40/60/40 
f 41/61/41 21/39/21 20/37/20 
f 20/37/20 40/60/40 41/61/41 
f 23/62/23 2/41/2 21/39/21 
f 21/39/21 41/61/41 23/62/23 
f 42/63/42 22/42/22 23/43/23 
f 23/43/23 43/64/43 42/63/42 
f 44/65/44 24/44/24 22/42/22 
f 22/42/22 42/63/42 44/65/44 
f 45/66/45 25/45/25 24/44/24 
f 24/44/24 44/65/44 45/66/45 
f 46/67/46 26/46/26 25/45/25 
f 25/45/25 45/66/45 46/67/46 
f 47/68/47 27/47/27 26/46/26 
f 26/46/26 46/67/46 47/68/47 
f 48/69/48 28/48/28 27/47/27 
f 27/47/27 47/68/47 48/69/48 
f 49/70/49 29/49/29 28/48/28 
f 28/48/28 48/69/48 49/70/49 
f 50/71/50 30/50/30 29/49/29 
f 29/49/29 49/70/49 50/71/50 
f 51/72/51 31/51/31 30/50/30 
f 30/50/30 50/71/50 51/72/51 
f 52/73/52 32/52/32 31/51/31 
f 31/51/31 51/72/51 52/73/52 
f 53/74/53 33/53/33 32/52/32 
f 32/52/32 52/73/52 53/74/53 
f 54/75/54 34/54/34 33/53/33 
f 33/53/33 53/74/53 54/75/54 
f 55/76/55 35/55/35 34/54/34 
f 34/54/34 54/75/54 55/76/55 
f 56/77/56 36/56/36 35/55/35 
f 35/55/35 55/76/55 56/77/56 
f 57/78/57 37/57/37 36/56/36 
f 36/56/36 56/77/56 57/78/57 
f 58/79/58 38/58/38 37/57/37 
f 37/57/37 57/78/57 58/79/58 
f 59/80/59 39/59/39 38/58/38 
f 38/58/38 58/79/58 59/80/59 
f 60/81/60 40/60/40 39/59/39 
f 39/59/39 59/80/59 60/81/60 
f 61/82/61 41/61/41 40/60/40 
f 40/60/40 60/81/60 61/82/61 
f 43/83/43 23/62/23 41/61/41 
f 41/61/41 61/82/61 43/83/43 
f 62/84/62 42/63/42 43/64/43 
f 43/64/43 63/85/63 62/84/62 
f 64/86/64 44/65/44 42/63/42 
f 42/63/42 62/84/62 64/86/64 
f 65/87/65 45/66/45 44/65/44 
f 44/65/44 64/86/64 65/87/65 
f 66/88/66 46/67/46 45/66/45 
f 45/66/45 65/87/65 66/88/66 
f 67/89/67 47/68/47 46/67/46 
f 46/67/46 66/88/66 67/89/67 
f 68/90/68 48/69/48 47/68/47 
f 47/68/47 67/89/67 68/90/68 
f 69/91/69 49/70/49 48/69/48 
f 48/69/48 68/90/68 69/91/69 
f 70/92/70 50/71/50 49/70/49 
f 49/70/49 69/91/69 70/92/70 
f 71/93/71 51/72/51 50/71/50 
f 50/71/50 70/92/70 71/93/71 
f 72/94/72 52/73/52 51/72/51 
f 51/72/51 71/93/71 72/94/72 
f 73/95/73 53/74/53 52/73/52 
f 52/73/52 72/94/72 73/95/73 
f 74/96/74 54/75/54 53/74/53 
f 53/74/53 73/95/73 74/96/74 
f 75/97/75 55/76/55 54/75/54 
f 54/75/54 74/96/74 75/97/75 
f 76/98/76 56/77/56 55/76/55 
f 55/76/55 75/97/75 76/98/76 
f 77/99/77 57/78/57 56/77/56 
f 56/77/56 76/98/76 77/99/77 
f 78/100/78 58/79/58 57/78/57 
f 57/78/57 77/99/77 78/100/78 
f 79/101/79 59/80/59 58/79/58 
f 58/79/58 78/100/78 79/101/79 
f 80/102/80 60/81/60 59/80/59 
f 59/80/59 79/101/79 80/102/80 
f 81/103/81 61/82/61 60/81/60 
f 60/81/60 80/102/80 81/103/81 
f 63/104/63 43/83/43 61/82/61 
f 61/82/61 81/103/81 63/104/63 
f 82/105/82 64/86/64 62/84/62 
f 62/84/62 83/106/82 82/105/82 
f 84/107/83 67/89/67 66/88/66 
f 66/88/66 85/108/83 84/107/83 
f 86/109/84 70/92/70 69/91/69 
f 69/91/69 87/110/84 86/109/84 
f 88/111/85 72/94/72 71/93/71 
f 71/93/71 89/112/85 88/111/85 
f 90/113/86 74/96/74 73/95/73 
f 73/95/73 91/114/87 90/113/86 
f 92/115/88 75/97/75 74/96/74 
f 74/96/74 90/113/86 92/115/88 
f 93/116/89 79/101/79 78/100/78 
f 78/100/78 94/117/89 93/116/89 
f 95/118/90 63/104/63 81/103/81 
f 81/103/81 96/119/90 95/118/90 
# 156 faces

