# 3ds Max Wavefront OBJ Exporter v0.99 - (c)2007 guruware
# File Created: 11.12.2023 07:11:56

mtllib maping_quiz.mtl

#
# object Plane002
#

v  428.5340 10.8433 -283.0919
v  428.5340 10.8433 -279.3419
v  428.5340 14.5933 -283.0919
v  428.5340 14.5933 -279.3419
v  428.5340 18.3433 -283.0919
v  428.5340 18.3433 -279.3419
v  428.5340 22.0933 -283.0919
v  428.5340 22.0933 -279.3419
v  428.5340 25.8433 -283.0919
v  428.5340 25.8433 -279.3419
v  428.5340 10.8433 -286.8419
v  428.5340 14.5933 -286.8419
v  428.5340 18.3433 -286.8419
v  428.5340 22.0933 -286.8419
v  428.5340 25.8433 -286.8419
v  428.5340 10.8433 -290.5919
v  428.5340 14.5933 -290.5919
v  428.5340 18.3433 -290.5919
v  428.5340 22.0933 -290.5919
v  428.5340 25.8433 -290.5919
v  428.5340 10.8433 -294.3419
v  428.5340 14.5933 -294.3419
v  428.5340 18.3433 -294.3419
v  428.5340 22.0933 -294.3419
v  428.5340 25.8433 -294.3419
v  -232.8665 0.1235 -276.8873
v  -229.6991 0.1235 -276.8873
v  -232.8665 0.1235 -282.3409
v  -229.6991 0.1235 -282.3409
v  -232.8665 0.1235 -287.7945
v  -229.6991 0.1235 -287.7945
v  -232.8665 0.1235 -293.2481
v  -229.6991 0.1235 -293.2481
v  -232.8665 0.1235 -298.7017
v  -229.6991 0.1235 -298.7017
v  -236.0340 0.1235 -276.8873
v  -236.0340 0.1235 -282.3409
v  -236.0340 0.1235 -287.7945
v  -236.0340 0.1235 -293.2481
v  -236.0340 0.1235 -298.7017
v  -239.2014 0.1235 -276.8873
v  -239.2014 0.1235 -282.3409
v  -239.2014 0.1235 -287.7945
v  -239.2014 0.1235 -293.2481
v  -239.2014 0.1235 -298.7017
v  -242.3689 0.1235 -276.8873
v  -242.3689 0.1235 -282.3409
v  -242.3689 0.1235 -287.7945
v  -242.3689 0.1235 -293.2481
v  -242.3689 0.1235 -298.7017
# 50 vertices

vn -1.0000 0.0000 -0.0000
vn 0.0000 1.0000 -0.0000
# 2 vertex normals

vt 0.7567 0.4796 0.5000
vt 0.8263 0.4801 0.5000
vt 0.7560 0.6084 0.5000
vt 0.8255 0.6090 0.5000
vt 0.7552 0.7373 0.5000
vt 0.8248 0.7378 0.5000
vt 0.7545 0.8661 0.5000
vt 0.8241 0.8667 0.5000
vt 0.7538 0.9949 0.5000
vt 0.8233 0.9955 0.5000
vt 0.6871 0.4790 0.5000
vt 0.6864 0.6079 0.5000
vt 0.6857 0.7367 0.5000
vt 0.6849 0.8656 0.5000
vt 0.6842 0.9944 0.5000
vt 0.6175 0.4785 0.5000
vt 0.6168 0.6073 0.5000
vt 0.6161 0.7362 0.5000
vt 0.6154 0.8650 0.5000
vt 0.6146 0.9938 0.5000
vt 0.5480 0.4779 0.5000
vt 0.5472 0.6068 0.5000
vt 0.5465 0.7356 0.5000
vt 0.5458 0.8645 0.5000
vt 0.5450 0.9933 0.5000
vt 0.5017 0.5934 0.5000
vt 0.5024 0.4743 0.5000
vt 0.5895 0.5940 0.5000
vt 0.5902 0.4750 0.5000
vt 0.6773 0.5947 0.5000
vt 0.6780 0.4757 0.5000
vt 0.7652 0.5954 0.5000
vt 0.7658 0.4764 0.5000
vt 0.8530 0.5961 0.5000
vt 0.8537 0.4771 0.5000
vt 0.5010 0.7125 0.5000
vt 0.5888 0.7132 0.5000
vt 0.6767 0.7139 0.5000
vt 0.7645 0.7146 0.5000
vt 0.8523 0.7153 0.5000
vt 0.5003 0.8315 0.5000
vt 0.5882 0.8322 0.5000
vt 0.6760 0.8329 0.5000
vt 0.7638 0.8336 0.5000
vt 0.8516 0.8343 0.5000
vt 0.4997 0.9506 0.5000
vt 0.5875 0.9513 0.5000
vt 0.6753 0.9520 0.5000
vt 0.7631 0.9527 0.5000
vt 0.8510 0.9534 0.5000
# 50 texture coords

o Plane002
g Plane002
usemtl Material__27
s 1
f 1/1/1 2/2/1 3/3/1 
f 4/4/1 3/3/1 2/2/1 
f 3/3/1 4/4/1 5/5/1 
f 6/6/1 5/5/1 4/4/1 
f 5/5/1 6/6/1 7/7/1 
f 8/8/1 7/7/1 6/6/1 
f 7/7/1 8/8/1 9/9/1 
f 10/10/1 9/9/1 8/8/1 
f 11/11/1 1/1/1 12/12/1 
f 3/3/1 12/12/1 1/1/1 
f 12/12/1 3/3/1 13/13/1 
f 5/5/1 13/13/1 3/3/1 
f 13/13/1 5/5/1 14/14/1 
f 7/7/1 14/14/1 5/5/1 
f 14/14/1 7/7/1 15/15/1 
f 9/9/1 15/15/1 7/7/1 
f 16/16/1 11/11/1 17/17/1 
f 12/12/1 17/17/1 11/11/1 
f 17/17/1 12/12/1 18/18/1 
f 13/13/1 18/18/1 12/12/1 
f 18/18/1 13/13/1 19/19/1 
f 14/14/1 19/19/1 13/13/1 
f 19/19/1 14/14/1 20/20/1 
f 15/15/1 20/20/1 14/14/1 
f 21/21/1 16/16/1 22/22/1 
f 17/17/1 22/22/1 16/16/1 
f 22/22/1 17/17/1 23/23/1 
f 18/18/1 23/23/1 17/17/1 
f 23/23/1 18/18/1 24/24/1 
f 19/19/1 24/24/1 18/18/1 
f 24/24/1 19/19/1 25/25/1 
f 20/20/1 25/25/1 19/19/1 
f 26/26/2 27/27/2 28/28/2 
f 29/29/2 28/28/2 27/27/2 
f 28/28/2 29/29/2 30/30/2 
f 31/31/2 30/30/2 29/29/2 
f 30/30/2 31/31/2 32/32/2 
f 33/33/2 32/32/2 31/31/2 
f 32/32/2 33/33/2 34/34/2 
f 35/35/2 34/34/2 33/33/2 
f 36/36/2 26/26/2 37/37/2 
f 28/28/2 37/37/2 26/26/2 
f 37/37/2 28/28/2 38/38/2 
f 30/30/2 38/38/2 28/28/2 
f 38/38/2 30/30/2 39/39/2 
f 32/32/2 39/39/2 30/30/2 
f 39/39/2 32/32/2 40/40/2 
f 34/34/2 40/40/2 32/32/2 
f 41/41/2 36/36/2 42/42/2 
f 37/37/2 42/42/2 36/36/2 
f 42/42/2 37/37/2 43/43/2 
f 38/38/2 43/43/2 37/37/2 
f 43/43/2 38/38/2 44/44/2 
f 39/39/2 44/44/2 38/38/2 
f 44/44/2 39/39/2 45/45/2 
f 40/40/2 45/45/2 39/39/2 
f 46/46/2 41/41/2 47/47/2 
f 42/42/2 47/47/2 41/41/2 
f 47/47/2 42/42/2 48/48/2 
f 43/43/2 48/48/2 42/42/2 
f 48/48/2 43/43/2 49/49/2 
f 44/44/2 49/49/2 43/43/2 
f 49/49/2 44/44/2 50/50/2 
f 45/45/2 50/50/2 44/44/2 
# 64 faces

#
# object Plane003
#

v  -400.6283 8.9204 -522.3227
v  -400.6283 2.2912 -522.3227
v  -400.6283 8.9204 -517.1696
v  -400.6283 2.2912 -517.1696
v  -400.6283 8.9204 -512.0164
v  -400.6283 2.2912 -512.0164
v  -400.6283 8.9204 -506.8633
v  -400.6283 2.2912 -506.8633
v  -400.6283 8.9204 -501.7102
v  -400.6283 2.2912 -501.7102
v  -400.6283 15.5496 -522.3226
v  -400.6283 15.5496 -517.1696
v  -400.6283 15.5496 -512.0164
v  -400.6283 15.5496 -506.8633
v  -400.6283 15.5496 -501.7102
v  -400.6283 22.1788 -522.3226
v  -400.6283 22.1788 -517.1696
v  -400.6283 22.1788 -512.0164
v  -400.6283 22.1788 -506.8633
v  -400.6283 22.1788 -501.7102
v  -400.6283 28.8080 -522.3226
v  -400.6283 28.8080 -517.1696
v  -400.6283 28.8080 -512.0164
v  -400.6283 28.8080 -506.8633
v  -400.6283 28.8080 -501.7102
# 25 vertices

vn -1.0000 0.0000 -0.0000
# 1 vertex normals

vt 0.4147 0.1183 0.0000
vt 0.4147 0.0058 0.0000
vt 0.5610 0.1183 0.0000
vt 0.5610 0.0058 0.0000
vt 0.7073 0.1183 0.0000
vt 0.7073 0.0058 0.0000
vt 0.8537 0.1183 0.0000
vt 0.8537 0.0058 0.0000
vt 1.0000 0.1183 0.0000
vt 1.0000 0.0058 0.0000
vt 0.4147 0.2309 0.0000
vt 0.5610 0.2309 0.0000
vt 0.7073 0.2309 0.0000
vt 0.8537 0.2309 0.0000
vt 1.0000 0.2309 0.0000
vt 0.4147 0.3434 0.0000
vt 0.5610 0.3434 0.0000
vt 0.7073 0.3434 0.0000
vt 0.8537 0.3434 0.0000
vt 1.0000 0.3434 0.0000
vt 0.4147 0.4559 0.0000
vt 0.5610 0.4559 0.0000
vt 0.7073 0.4559 0.0000
vt 0.8537 0.4559 0.0000
vt 1.0000 0.4559 0.0000
# 25 texture coords

o Plane003
g Plane003
usemtl Material__25
s 1
f 51/51/3 52/52/3 53/53/3 
f 54/54/3 53/53/3 52/52/3 
f 53/53/3 54/54/3 55/55/3 
f 56/56/3 55/55/3 54/54/3 
f 55/55/3 56/56/3 57/57/3 
f 58/58/3 57/57/3 56/56/3 
f 57/57/3 58/58/3 59/59/3 
f 60/60/3 59/59/3 58/58/3 
f 61/61/3 51/51/3 62/62/3 
f 53/53/3 62/62/3 51/51/3 
f 62/62/3 53/53/3 63/63/3 
f 55/55/3 63/63/3 53/53/3 
f 63/63/3 55/55/3 64/64/3 
f 57/57/3 64/64/3 55/55/3 
f 64/64/3 57/57/3 65/65/3 
f 59/59/3 65/65/3 57/57/3 
f 66/66/3 61/61/3 67/67/3 
f 62/62/3 67/67/3 61/61/3 
f 67/67/3 62/62/3 68/68/3 
f 63/63/3 68/68/3 62/62/3 
f 68/68/3 63/63/3 69/69/3 
f 64/64/3 69/69/3 63/63/3 
f 69/69/3 64/64/3 70/70/3 
f 65/65/3 70/70/3 64/64/3 
f 71/71/3 66/66/3 72/72/3 
f 67/67/3 72/72/3 66/66/3 
f 72/72/3 67/67/3 73/73/3 
f 68/68/3 73/73/3 67/67/3 
f 73/73/3 68/68/3 74/74/3 
f 69/69/3 74/74/3 68/68/3 
f 74/74/3 69/69/3 75/75/3 
f 70/70/3 75/75/3 69/69/3 
# 32 faces

#
# object Plane004
#

v  -184.0256 10.9421 -635.7798
v  -184.0256 6.2191 -635.7798
v  -187.8017 10.9421 -635.7798
v  -187.8017 6.2191 -635.7798
v  -191.5778 10.9421 -635.7798
v  -191.5778 6.2191 -635.7798
v  -195.3539 10.9421 -635.7798
v  -195.3539 6.2191 -635.7798
v  -199.1300 10.9421 -635.7798
v  -199.1300 6.2191 -635.7798
v  -184.0256 15.6652 -635.7798
v  -187.8017 15.6652 -635.7798
v  -191.5778 15.6652 -635.7798
v  -195.3539 15.6652 -635.7798
v  -199.1300 15.6652 -635.7798
v  -184.0256 20.3882 -635.7798
v  -187.8017 20.3882 -635.7798
v  -191.5778 20.3882 -635.7798
v  -195.3539 20.3882 -635.7798
v  -199.1300 20.3882 -635.7798
v  -184.0256 25.1113 -635.7798
v  -187.8017 25.1113 -635.7798
v  -191.5778 25.1113 -635.7798
v  -195.3539 25.1113 -635.7798
v  -199.1300 25.1113 -635.7798
# 25 vertices

vn 0.0000 0.0000 -1.0000
# 1 vertex normals

vt 0.0000 0.5525 0.0000
vt 0.0000 0.4033 0.0000
vt 0.1127 0.5525 0.0000
vt 0.1127 0.4033 0.0000
vt 0.2254 0.5525 0.0000
vt 0.2254 0.4033 0.0000
vt 0.3382 0.5525 0.0000
vt 0.3382 0.4033 0.0000
vt 0.4509 0.5525 0.0000
vt 0.4509 0.4033 0.0000
vt 0.0000 0.7017 0.0000
vt 0.1127 0.7017 0.0000
vt 0.2254 0.7017 0.0000
vt 0.3382 0.7017 0.0000
vt 0.4509 0.7017 0.0000
vt 0.0000 0.8508 0.0000
vt 0.1127 0.8508 0.0000
vt 0.2254 0.8508 0.0000
vt 0.3382 0.8508 0.0000
vt 0.4509 0.8508 0.0000
vt 0.0000 1.0000 0.0000
vt 0.1127 1.0000 0.0000
vt 0.2254 1.0000 0.0000
vt 0.3382 1.0000 0.0000
vt 0.4509 1.0000 0.0000
# 25 texture coords

o Plane004
g Plane004
usemtl Material__26
s 1
f 76/76/4 77/77/4 78/78/4 
f 79/79/4 78/78/4 77/77/4 
f 78/78/4 79/79/4 80/80/4 
f 81/81/4 80/80/4 79/79/4 
f 80/80/4 81/81/4 82/82/4 
f 83/83/4 82/82/4 81/81/4 
f 82/82/4 83/83/4 84/84/4 
f 85/85/4 84/84/4 83/83/4 
f 86/86/4 76/76/4 87/87/4 
f 78/78/4 87/87/4 76/76/4 
f 87/87/4 78/78/4 88/88/4 
f 80/80/4 88/88/4 78/78/4 
f 88/88/4 80/80/4 89/89/4 
f 82/82/4 89/89/4 80/80/4 
f 89/89/4 82/82/4 90/90/4 
f 84/84/4 90/90/4 82/82/4 
f 91/91/4 86/86/4 92/92/4 
f 87/87/4 92/92/4 86/86/4 
f 92/92/4 87/87/4 93/93/4 
f 88/88/4 93/93/4 87/87/4 
f 93/93/4 88/88/4 94/94/4 
f 89/89/4 94/94/4 88/88/4 
f 94/94/4 89/89/4 95/95/4 
f 90/90/4 95/95/4 89/89/4 
f 96/96/4 91/91/4 97/97/4 
f 92/92/4 97/97/4 91/91/4 
f 97/97/4 92/92/4 98/98/4 
f 93/93/4 98/98/4 92/92/4 
f 98/98/4 93/93/4 99/99/4 
f 94/94/4 99/99/4 93/93/4 
f 99/99/4 94/94/4 100/100/4 
f 95/95/4 100/100/4 94/94/4 
# 32 faces

