# 3ds Max Wavefront OBJ Exporter v0.99 - (c)2007 guruware
# File Created: 05.12.2023 23:01:16

mtllib ??? in ?\q_lower.mtl

#
# object Sphere003
#

v  -260.9919 13.0418 -563.0529
v  -261.0430 14.0848 -563.2100
v  -260.0000 14.0848 -563.3752
v  -260.0000 13.0418 -563.2100
v  -262.5969 13.0418 -561.8868
v  -262.7306 14.0848 -561.9839
v  -261.9839 14.0848 -562.7305
v  -261.8867 13.0418 -562.5969
v  -262.5969 13.0418 -558.1132
v  -262.7306 14.0848 -558.0161
v  -263.2100 14.0848 -558.9570
v  -263.0529 13.0418 -559.0081
v  -260.9919 13.0418 -556.9471
v  -261.0430 14.0848 -556.7900
v  -261.9839 14.0848 -557.2695
v  -261.8867 13.0418 -557.4031
v  -259.0081 13.0418 -556.9471
v  -258.9570 14.0848 -556.7900
v  -260.0000 14.0848 -556.6248
v  -260.0000 13.0418 -556.7900
v  -256.9471 13.0418 -559.0081
v  -256.7900 14.0848 -558.9570
v  -257.2694 14.0848 -558.0161
v  -257.4031 13.0418 -558.1132
v  -258.1133 13.0418 -562.5969
v  -258.0161 14.0848 -562.7306
v  -257.2694 14.0848 -561.9839
v  -257.4031 13.0418 -561.8868
v  -259.0081 13.0418 -563.0529
v  -258.9570 14.0848 -563.2100
v  -260.8438 12.1009 -562.5969
v  -260.0000 12.1009 -562.7305
v  -261.6050 12.1009 -562.2090
v  -262.2091 12.1009 -561.6050
v  -262.5969 12.1009 -560.8438
v  -263.0529 13.0418 -560.9919
v  -262.7306 12.1009 -560.0000
v  -263.2100 13.0418 -560.0000
v  -262.5969 12.1009 -559.1562
v  -262.2091 12.1009 -558.3950
v  -261.6050 12.1009 -557.7910
v  -260.8438 12.1009 -557.4031
v  -260.0000 12.1009 -557.2695
v  -259.1562 12.1009 -557.4031
v  -258.3950 12.1009 -557.7910
v  -258.1132 13.0418 -557.4031
v  -257.7909 12.1009 -558.3950
v  -257.4031 12.1009 -559.1562
v  -257.2694 12.1009 -560.0000
v  -256.7900 13.0418 -560.0000
v  -257.4031 12.1009 -560.8438
v  -256.9471 13.0418 -560.9919
v  -257.7909 12.1009 -561.6050
v  -258.3950 12.1009 -562.2090
v  -259.1562 12.1009 -562.5969
v  -260.6131 11.3542 -561.8868
v  -260.0000 11.3542 -561.9839
v  -261.1661 11.3542 -561.6050
v  -261.6050 11.3542 -561.1661
v  -261.8867 11.3542 -560.6130
v  -261.9839 11.3542 -560.0000
v  -261.8867 11.3542 -559.3870
v  -261.6050 11.3542 -558.8339
v  -261.1661 11.3542 -558.3950
v  -260.6130 11.3542 -558.1132
v  -260.0000 11.3542 -558.0161
v  -259.3869 11.3542 -558.1132
v  -258.8339 11.3542 -558.3950
v  -258.3950 11.3542 -558.8339
v  -258.1133 11.3542 -559.3870
v  -258.0161 11.3542 -560.0000
v  -258.1133 11.3542 -560.6130
v  -258.3950 11.3542 -561.1661
v  -258.8339 11.3542 -561.6050
v  -259.3870 11.3542 -561.8868
v  -260.3223 10.8748 -560.9919
v  -260.0000 10.8748 -561.0430
v  -260.6131 10.8748 -560.8438
v  -260.8438 10.8748 -560.6130
v  -260.9919 10.8748 -560.3223
v  -261.0430 10.8748 -560.0000
v  -260.9919 10.8748 -559.6777
v  -260.8438 10.8748 -559.3870
v  -260.6130 10.8748 -559.1562
v  -260.3223 10.8748 -559.0081
v  -260.0000 10.8748 -558.9570
v  -259.6777 10.8748 -559.0081
v  -259.3869 10.8748 -559.1562
v  -259.1562 10.8748 -559.3870
v  -259.0081 10.8748 -559.6777
v  -258.9570 10.8748 -560.0000
v  -259.0081 10.8748 -560.3223
v  -259.1562 10.8748 -560.6130
v  -259.3870 10.8748 -560.8438
v  -259.6777 10.8748 -560.9919
v  -260.0000 10.7096 -560.0000
# 96 vertices

vn -0.2364 -0.3543 -0.9048
vn -0.1546 -0.1546 -0.9758
vn -0.0548 -0.3543 -0.9335
vn -0.7231 -0.3543 -0.5930
vn -0.6986 -0.1546 -0.6986
vn -0.5930 -0.3543 -0.7231
vn -0.7874 -0.3543 0.5044
vn -0.8803 -0.1546 0.4485
vn -0.8709 -0.3543 0.3406
vn -0.3406 -0.3543 0.8709
vn -0.4485 -0.1546 0.8803
vn -0.5044 -0.3543 0.7874
vn 0.2364 -0.3543 0.9048
vn 0.1546 -0.1546 0.9758
vn 0.0548 -0.3543 0.9335
vn 0.8709 -0.3543 0.3406
vn 0.8803 -0.1546 0.4485
vn 0.7874 -0.3543 0.5044
vn 0.5599 -0.3045 -0.7706
vn 0.5805 -0.1564 -0.7991
vn 0.6986 -0.1546 -0.6986
vn 0.7231 -0.3543 -0.5930
vn 0.3406 -0.3543 -0.8709
vn 0.4485 -0.1546 -0.8803
vn -0.2516 -0.5805 -0.7744
vn 0.0000 -0.5805 -0.8143
vn -0.4786 -0.5805 -0.6588
vn -0.6588 -0.5805 -0.4786
vn -0.7744 -0.5805 -0.2516
vn -0.8474 -0.4540 -0.2753
vn -0.8143 -0.5805 -0.0000
vn -0.8910 -0.4540 -0.0000
vn -0.7744 -0.5805 0.2516
vn -0.6588 -0.5805 0.4786
vn -0.4786 -0.5805 0.6588
vn -0.2516 -0.5805 0.7744
vn 0.0000 -0.5805 0.8143
vn 0.2516 -0.5805 0.7744
vn 0.4786 -0.5805 0.6588
vn 0.5237 -0.4540 0.7208
vn 0.6588 -0.5805 0.4786
vn 0.7744 -0.5805 0.2516
vn 0.8143 -0.5805 -0.0000
vn 0.8910 -0.4540 -0.0000
vn 0.7744 -0.5805 -0.2516
vn 0.8474 -0.4540 -0.2753
vn 0.6588 -0.5805 -0.4786
vn 0.4786 -0.5805 -0.6588
vn 0.2516 -0.5805 -0.7744
vn -0.1847 -0.8016 -0.5686
vn 0.0000 -0.8016 -0.5978
vn -0.3514 -0.8016 -0.4837
vn -0.4837 -0.8016 -0.3514
vn -0.5686 -0.8016 -0.1847
vn -0.5978 -0.8016 -0.0000
vn -0.5686 -0.8016 0.1847
vn -0.4837 -0.8016 0.3514
vn -0.3514 -0.8016 0.4837
vn -0.1847 -0.8016 0.5686
vn 0.0000 -0.8016 0.5978
vn 0.1847 -0.8016 0.5686
vn 0.3514 -0.8016 0.4837
vn 0.4837 -0.8016 0.3514
vn 0.5686 -0.8016 0.1847
vn 0.5978 -0.8016 -0.0000
vn 0.5686 -0.8016 -0.1847
vn 0.4837 -0.8016 -0.3514
vn 0.3514 -0.8016 -0.4837
vn 0.1847 -0.8016 -0.5686
vn -0.0998 -0.9464 -0.3072
vn 0.0000 -0.9464 -0.3230
vn -0.1899 -0.9464 -0.2613
vn -0.2613 -0.9464 -0.1899
vn -0.3072 -0.9464 -0.0998
vn -0.3230 -0.9464 -0.0000
vn -0.3072 -0.9464 0.0998
vn -0.2613 -0.9464 0.1899
vn -0.1899 -0.9464 0.2613
vn -0.0998 -0.9464 0.3072
vn 0.0000 -0.9464 0.3230
vn 0.0998 -0.9464 0.3072
vn 0.1899 -0.9464 0.2613
vn 0.2613 -0.9464 0.1899
vn 0.3072 -0.9464 0.0998
vn 0.3230 -0.9464 -0.0000
vn 0.3072 -0.9464 -0.0998
vn 0.2613 -0.9464 -0.1899
vn 0.1899 -0.9464 -0.2613
vn 0.0998 -0.9464 -0.3072
vn 0.0000 -1.0000 -0.0000
# 90 vertex normals

vt 0.0500 0.4000 0.0000
vt 0.0500 0.5000 0.0000
vt 0.0000 0.5000 0.0000
vt 0.0000 0.4000 0.0000
vt 0.1500 0.4000 0.0000
vt 0.1500 0.5000 0.0000
vt 0.1000 0.5000 0.0000
vt 0.1000 0.4000 0.0000
vt 0.3500 0.4000 0.0000
vt 0.3500 0.5000 0.0000
vt 0.3000 0.5000 0.0000
vt 0.3000 0.4000 0.0000
vt 0.4500 0.4000 0.0000
vt 0.4500 0.5000 0.0000
vt 0.4000 0.5000 0.0000
vt 0.4000 0.4000 0.0000
vt 0.5500 0.4000 0.0000
vt 0.5500 0.5000 0.0000
vt 0.5000 0.5000 0.0000
vt 0.5000 0.4000 0.0000
vt 0.7000 0.4000 0.0000
vt 0.7000 0.5000 0.0000
vt 0.6500 0.5000 0.0000
vt 0.6500 0.4000 0.0000
vt 0.9000 0.4000 0.0000
vt 0.9000 0.5000 0.0000
vt 0.8500 0.5000 0.0000
vt 0.8500 0.4000 0.0000
vt 0.9500 0.4000 0.0000
vt 0.9500 0.5000 0.0000
vt 0.0500 0.3000 0.0000
vt 0.0000 0.3000 0.0000
vt 0.1000 0.3000 0.0000
vt 0.1500 0.3000 0.0000
vt 0.2000 0.3000 0.0000
vt 0.2000 0.4000 0.0000
vt 0.2500 0.3000 0.0000
vt 0.2500 0.4000 0.0000
vt 0.3000 0.3000 0.0000
vt 0.3500 0.3000 0.0000
vt 0.4000 0.3000 0.0000
vt 0.4500 0.3000 0.0000
vt 0.5000 0.3000 0.0000
vt 0.5500 0.3000 0.0000
vt 0.6000 0.3000 0.0000
vt 0.6000 0.4000 0.0000
vt 0.6500 0.3000 0.0000
vt 0.7000 0.3000 0.0000
vt 0.7500 0.3000 0.0000
vt 0.7500 0.4000 0.0000
vt 0.8000 0.3000 0.0000
vt 0.8000 0.4000 0.0000
vt 0.8500 0.3000 0.0000
vt 0.9000 0.3000 0.0000
vt 0.9500 0.3000 0.0000
vt 1.0000 0.3000 0.0000
vt 1.0000 0.4000 0.0000
vt 0.0500 0.2000 0.0000
vt 0.0000 0.2000 0.0000
vt 0.1000 0.2000 0.0000
vt 0.1500 0.2000 0.0000
vt 0.2000 0.2000 0.0000
vt 0.2500 0.2000 0.0000
vt 0.3000 0.2000 0.0000
vt 0.3500 0.2000 0.0000
vt 0.4000 0.2000 0.0000
vt 0.4500 0.2000 0.0000
vt 0.5000 0.2000 0.0000
vt 0.5500 0.2000 0.0000
vt 0.6000 0.2000 0.0000
vt 0.6500 0.2000 0.0000
vt 0.7000 0.2000 0.0000
vt 0.7500 0.2000 0.0000
vt 0.8000 0.2000 0.0000
vt 0.8500 0.2000 0.0000
vt 0.9000 0.2000 0.0000
vt 0.9500 0.2000 0.0000
vt 1.0000 0.2000 0.0000
vt 0.0500 0.1000 0.0000
vt 0.0000 0.1000 0.0000
vt 0.1000 0.1000 0.0000
vt 0.1500 0.1000 0.0000
vt 0.2000 0.1000 0.0000
vt 0.2500 0.1000 0.0000
vt 0.3000 0.1000 0.0000
vt 0.3500 0.1000 0.0000
vt 0.4000 0.1000 0.0000
vt 0.4500 0.1000 0.0000
vt 0.5000 0.1000 0.0000
vt 0.5500 0.1000 0.0000
vt 0.6000 0.1000 0.0000
vt 0.6500 0.1000 0.0000
vt 0.7000 0.1000 0.0000
vt 0.7500 0.1000 0.0000
vt 0.8000 0.1000 0.0000
vt 0.8500 0.1000 0.0000
vt 0.9000 0.1000 0.0000
vt 0.9500 0.1000 0.0000
vt 1.0000 0.1000 0.0000
vt 0.0000 -0.0000 0.0000
vt 0.0500 -0.0000 0.0000
vt 0.1000 -0.0000 0.0000
vt 0.1500 -0.0000 0.0000
vt 0.2000 -0.0000 0.0000
vt 0.2500 -0.0000 0.0000
vt 0.3000 -0.0000 0.0000
vt 0.3500 -0.0000 0.0000
vt 0.4000 -0.0000 0.0000
vt 0.4500 -0.0000 0.0000
vt 0.5000 -0.0000 0.0000
vt 0.5500 -0.0000 0.0000
vt 0.6000 -0.0000 0.0000
vt 0.6500 -0.0000 0.0000
vt 0.7000 -0.0000 0.0000
vt 0.7500 -0.0000 0.0000
vt 0.8000 -0.0000 0.0000
vt 0.8500 -0.0000 0.0000
vt 0.9000 -0.0000 0.0000
vt 0.9500 -0.0000 0.0000
# 119 texture coords

o Sphere003
g Sphere003
usemtl ?_??_lower_wire_153228153
s 1
f 1/1/1 2/2/2 3/3/2 
f 3/3/2 4/4/3 1/1/1 
f 5/5/4 6/6/5 7/7/5 
f 7/7/5 8/8/6 5/5/4 
f 9/9/7 10/10/8 11/11/8 
f 11/11/8 12/12/9 9/9/7 
f 13/13/10 14/14/11 15/15/11 
f 15/15/11 16/16/12 13/13/10 
f 17/17/13 18/18/14 19/19/14 
f 19/19/14 20/20/15 17/17/13 
f 21/21/16 22/22/17 23/23/17 
f 23/23/17 24/24/18 21/21/16 
f 25/25/19 26/26/20 27/27/21 
f 27/27/21 28/28/22 25/25/19 
f 29/29/23 30/30/24 26/26/20 
f 26/26/20 25/25/19 29/29/23 
f 31/31/25 1/1/1 4/4/3 
f 4/4/3 32/32/26 31/31/25 
f 33/33/27 8/8/6 1/1/1 
f 1/1/1 31/31/25 33/33/27 
f 34/34/28 5/5/4 8/8/6 
f 8/8/6 33/33/27 34/34/28 
f 35/35/29 36/36/30 5/5/4 
f 5/5/4 34/34/28 35/35/29 
f 37/37/31 38/38/32 36/36/30 
f 36/36/30 35/35/29 37/37/31 
f 39/39/33 12/12/9 38/38/32 
f 38/38/32 37/37/31 39/39/33 
f 40/40/34 9/9/7 12/12/9 
f 12/12/9 39/39/33 40/40/34 
f 41/41/35 16/16/12 9/9/7 
f 9/9/7 40/40/34 41/41/35 
f 42/42/36 13/13/10 16/16/12 
f 16/16/12 41/41/35 42/42/36 
f 43/43/37 20/20/15 13/13/10 
f 13/13/10 42/42/36 43/43/37 
f 44/44/38 17/17/13 20/20/15 
f 20/20/15 43/43/37 44/44/38 
f 45/45/39 46/46/40 17/17/13 
f 17/17/13 44/44/38 45/45/39 
f 47/47/41 24/24/18 46/46/40 
f 46/46/40 45/45/39 47/47/41 
f 48/48/42 21/21/16 24/24/18 
f 24/24/18 47/47/41 48/48/42 
f 49/49/43 50/50/44 21/21/16 
f 21/21/16 48/48/42 49/49/43 
f 51/51/45 52/52/46 50/50/44 
f 50/50/44 49/49/43 51/51/45 
f 53/53/47 28/28/22 52/52/46 
f 52/52/46 51/51/45 53/53/47 
f 54/54/48 25/25/19 28/28/22 
f 28/28/22 53/53/47 54/54/48 
f 55/55/49 29/29/23 25/25/19 
f 25/25/19 54/54/48 55/55/49 
f 32/56/26 4/57/3 29/29/23 
f 29/29/23 55/55/49 32/56/26 
f 56/58/50 31/31/25 32/32/26 
f 32/32/26 57/59/51 56/58/50 
f 58/60/52 33/33/27 31/31/25 
f 31/31/25 56/58/50 58/60/52 
f 59/61/53 34/34/28 33/33/27 
f 33/33/27 58/60/52 59/61/53 
f 60/62/54 35/35/29 34/34/28 
f 34/34/28 59/61/53 60/62/54 
f 61/63/55 37/37/31 35/35/29 
f 35/35/29 60/62/54 61/63/55 
f 62/64/56 39/39/33 37/37/31 
f 37/37/31 61/63/55 62/64/56 
f 63/65/57 40/40/34 39/39/33 
f 39/39/33 62/64/56 63/65/57 
f 64/66/58 41/41/35 40/40/34 
f 40/40/34 63/65/57 64/66/58 
f 65/67/59 42/42/36 41/41/35 
f 41/41/35 64/66/58 65/67/59 
f 66/68/60 43/43/37 42/42/36 
f 42/42/36 65/67/59 66/68/60 
f 67/69/61 44/44/38 43/43/37 
f 43/43/37 66/68/60 67/69/61 
f 68/70/62 45/45/39 44/44/38 
f 44/44/38 67/69/61 68/70/62 
f 69/71/63 47/47/41 45/45/39 
f 45/45/39 68/70/62 69/71/63 
f 70/72/64 48/48/42 47/47/41 
f 47/47/41 69/71/63 70/72/64 
f 71/73/65 49/49/43 48/48/42 
f 48/48/42 70/72/64 71/73/65 
f 72/74/66 51/51/45 49/49/43 
f 49/49/43 71/73/65 72/74/66 
f 73/75/67 53/53/47 51/51/45 
f 51/51/45 72/74/66 73/75/67 
f 74/76/68 54/54/48 53/53/47 
f 53/53/47 73/75/67 74/76/68 
f 75/77/69 55/55/49 54/54/48 
f 54/54/48 74/76/68 75/77/69 
f 57/78/51 32/56/26 55/55/49 
f 55/55/49 75/77/69 57/78/51 
f 76/79/70 56/58/50 57/59/51 
f 57/59/51 77/80/71 76/79/70 
f 78/81/72 58/60/52 56/58/50 
f 56/58/50 76/79/70 78/81/72 
f 79/82/73 59/61/53 58/60/52 
f 58/60/52 78/81/72 79/82/73 
f 80/83/74 60/62/54 59/61/53 
f 59/61/53 79/82/73 80/83/74 
f 81/84/75 61/63/55 60/62/54 
f 60/62/54 80/83/74 81/84/75 
f 82/85/76 62/64/56 61/63/55 
f 61/63/55 81/84/75 82/85/76 
f 83/86/77 63/65/57 62/64/56 
f 62/64/56 82/85/76 83/86/77 
f 84/87/78 64/66/58 63/65/57 
f 63/65/57 83/86/77 84/87/78 
f 85/88/79 65/67/59 64/66/58 
f 64/66/58 84/87/78 85/88/79 
f 86/89/80 66/68/60 65/67/59 
f 65/67/59 85/88/79 86/89/80 
f 87/90/81 67/69/61 66/68/60 
f 66/68/60 86/89/80 87/90/81 
f 88/91/82 68/70/62 67/69/61 
f 67/69/61 87/90/81 88/91/82 
f 89/92/83 69/71/63 68/70/62 
f 68/70/62 88/91/82 89/92/83 
f 90/93/84 70/72/64 69/71/63 
f 69/71/63 89/92/83 90/93/84 
f 91/94/85 71/73/65 70/72/64 
f 70/72/64 90/93/84 91/94/85 
f 92/95/86 72/74/66 71/73/65 
f 71/73/65 91/94/85 92/95/86 
f 93/96/87 73/75/67 72/74/66 
f 72/74/66 92/95/86 93/96/87 
f 94/97/88 74/76/68 73/75/67 
f 73/75/67 93/96/87 94/97/88 
f 95/98/89 75/77/69 74/76/68 
f 74/76/68 94/97/88 95/98/89 
f 77/99/71 57/78/51 75/77/69 
f 75/77/69 95/98/89 77/99/71 
f 96/100/90 76/79/70 77/80/71 
f 96/101/90 78/81/72 76/79/70 
f 96/102/90 79/82/73 78/81/72 
f 96/103/90 80/83/74 79/82/73 
f 96/104/90 81/84/75 80/83/74 
f 96/105/90 82/85/76 81/84/75 
f 96/106/90 83/86/77 82/85/76 
f 96/107/90 84/87/78 83/86/77 
f 96/108/90 85/88/79 84/87/78 
f 96/109/90 86/89/80 85/88/79 
f 96/110/90 87/90/81 86/89/80 
f 96/111/90 88/91/82 87/90/81 
f 96/112/90 89/92/83 88/91/82 
f 96/113/90 90/93/84 89/92/83 
f 96/114/90 91/94/85 90/93/84 
f 96/115/90 92/95/86 91/94/85 
f 96/116/90 93/96/87 92/95/86 
f 96/117/90 94/97/88 93/96/87 
f 96/118/90 95/98/89 94/97/88 
f 96/119/90 77/99/71 95/98/89 
# 156 faces

