# 3ds Max Wavefront OBJ Exporter v0.99 - (c)2007 guruware
# File Created: 27.11.2023 19:31:17

mtllib floor.mtl

#
# object Box001
#

v  -25.0000 0.0000 -25.0000
v  -25.0000 0.0000 25.0000
v  25.0000 0.0000 25.0000
v  25.0000 0.0000 -25.0000
v  25.0000 -1.0000 25.0000
v  -25.0000 -1.0000 25.0000
v  -25.0000 -1.0000 -25.0000
v  25.0000 -1.0000 -25.0000
# 8 vertices

vn -0.5774 0.5774 -0.5774
vn -0.5774 0.5774 0.5774
vn 0.5774 0.5774 0.5774
vn 0.5774 0.5774 -0.5774
vn 0.5774 -0.5774 0.5774
vn -0.5774 -0.5774 0.5774
vn -0.5774 -0.5774 -0.5774
vn 0.5774 -0.5774 -0.5774
# 8 vertex normals

vt 0.5000 0.5000 0.0000
vt 0.5000 0.0118 0.0000
vt 0.9882 0.0118 0.0000
vt 0.9882 0.5000 0.0000
vt 0.0020 0.0118 0.0000
vt 0.4902 0.0118 0.0000
vt 0.4902 0.5000 0.0000
vt 0.0020 0.5000 0.0000
vt 0.5000 0.0020 0.0000
vt 0.9882 0.0020 0.0000
vt 0.9980 0.0118 0.0000
vt 0.9980 0.5000 0.0000
vt 0.9882 0.5098 0.0000
vt 0.5000 0.5098 0.0000
# 14 texture coords

o Box001
g Box001
usemtl wire_166229229
s 2
f 1/1/1 2/2/2 3/3/3 4/4/4 
s 4
f 5/5/5 6/6/6 7/7/7 8/8/8 
s 8
f 3/3/3 2/2/2 6/9/6 5/10/5 
s 16
f 4/4/4 3/3/3 5/11/5 8/12/8 
s 32
f 1/1/1 4/4/4 8/13/8 7/14/7 
s 64
f 2/2/2 1/1/1 7/7/7 6/6/6 
# 6 polygons

