# 3ds Max Wavefront OBJ Exporter v0.99 - (c)2007 guruware
# File Created: 28.11.2023 20:43:25

mtllib ceiling.mtl

#
# object Box015
#

v  2.9816 30.0662 -0.0000
v  0.0000 30.0618 0.0000
v  0.0000 30.0663 3.2335
v  2.9816 30.0639 3.2317
v  -2.4740 28.9380 25.0000
v  0.0000 28.9380 25.0000
v  -0.0000 30.0618 25.0000
v  -2.9816 30.0618 25.0000
v  25.0000 29.0000 2.4740
v  25.0000 29.0000 -0.0000
v  25.0000 30.0000 -0.0000
v  25.0000 30.0000 3.2302
v  2.4740 28.9380 -25.0000
v  0.0000 28.9380 -25.0000
v  -0.0000 30.0618 -25.0000
v  2.9816 30.0618 -25.0000
v  -25.0000 29.0000 -2.4740
v  -25.0000 29.0000 -0.0000
v  -25.0000 30.0000 -0.0000
v  -25.0000 30.0000 -2.9852
v  0.0000 30.0438 -5.6668
v  2.9816 30.0439 -5.6668
v  0.0000 30.0663 -2.9887
v  2.9816 30.0639 -2.9868
v  0.0000 30.0618 4.9620
v  -2.9816 30.0618 4.9613
v  -2.9816 30.0639 3.2317
v  -2.4740 28.9380 -25.0000
v  0.0000 28.9380 -3.9266
v  -1.4934 28.9380 -3.9266
v  -0.5222 26.1464 -1.0518
v  0.0000 26.1464 -1.0518
v  0.0000 25.9789 0.0000
v  2.4740 28.9380 25.0000
v  0.0000 28.9380 3.9266
v  1.4934 28.9380 3.9266
v  0.5222 26.1464 1.0518
v  0.0000 26.1464 1.0518
v  25.0000 29.0000 -4.9479
v  25.0000 29.0000 -25.0000
v  25.0000 30.0000 -25.0000
v  25.0000 30.0443 -5.6668
v  25.0000 29.0000 -2.4740
v  25.0000 30.0000 -2.9852
v  25.0000 30.0000 4.9584
v  25.0000 30.0000 25.0000
v  25.0000 29.0000 25.0000
v  25.0000 29.0000 4.9479
v  -25.0000 29.0000 4.9479
v  -25.0000 29.0000 25.0000
v  -25.0000 30.0000 25.0000
v  -25.0000 30.0000 4.9584
v  -25.0000 29.0000 2.4740
v  -25.0000 30.0000 3.2302
v  -25.0000 30.0443 -5.6668
v  -25.0000 30.0000 -25.0000
v  -25.0000 29.0000 -25.0000
v  -25.0000 29.0000 -4.9479
v  -5.6845 30.0618 0.0000
v  -5.6845 30.0618 3.2302
v  -2.9816 30.0662 -0.0000
v  5.6845 30.0618 3.2302
v  5.6845 30.0618 0.0000
v  4.2373 28.9380 -0.0000
v  3.9180 28.9380 1.4934
v  0.7938 26.1464 -0.0000
v  0.7484 26.1464 0.3998
v  -3.9180 28.9380 1.4934
v  -4.2373 28.9380 -0.0000
v  -0.7484 26.1464 0.3998
v  -0.7938 26.1464 0.0000
v  4.9479 28.9380 25.0000
v  5.6845 30.0618 25.0000
v  2.9816 30.0618 25.0000
v  -5.6845 30.0618 25.0000
v  -4.9479 28.9380 25.0000
v  -4.9479 28.9380 -25.0000
v  -5.6845 30.0618 -25.0000
v  -2.9816 30.0618 -25.0000
v  5.6845 30.0618 -25.0000
v  4.9479 28.9380 -25.0000
v  -5.6845 30.0443 -5.6668
v  -2.9816 30.0439 -5.6668
v  5.6845 30.0443 -5.6668
v  -5.6845 30.0618 -2.9852
v  -2.9816 30.0639 -2.9868
v  5.6845 30.0618 -2.9852
v  5.6845 30.0618 4.9584
v  2.9816 30.0618 4.9613
v  -5.6845 30.0618 4.9584
v  2.9869 28.9380 -2.9869
v  1.4934 28.9380 -3.9266
v  -2.9869 28.9380 -2.9869
v  3.9180 28.9380 -1.4934
v  0.5222 26.1464 -1.0518
v  0.5387 26.1465 -1.0322
v  0.7484 26.1464 -0.3998
v  -3.9180 28.9380 -1.4934
v  -0.7484 26.1464 -0.3998
v  -0.5387 26.1465 -1.0322
v  -2.9869 28.9380 2.9869
v  -1.4934 28.9380 3.9266
v  2.9869 28.9380 2.9869
v  -0.5222 26.1464 1.0518
v  -0.5387 26.1465 1.0322
v  0.5387 26.1465 1.0322
v  -1.2992 27.8333 -3.4767
v  -2.4973 27.8334 -2.6710
v  -0.0000 27.8332 -3.4767
v  1.2992 27.8333 -3.4767
v  2.4973 27.8334 -2.6710
v  3.2841 27.8333 -1.3223
v  3.5486 27.8332 -0.0000
v  3.2841 27.8333 1.3223
v  2.4973 27.8334 2.6710
v  1.2992 27.8333 3.4767
v  -0.0000 27.8332 3.4767
v  -1.2992 27.8333 3.4767
v  -2.4973 27.8334 2.6710
v  -3.2841 27.8333 1.3223
v  -3.5486 27.8332 0.0000
v  -3.2841 27.8333 -1.3223
v  -0.9107 26.7889 -2.3986
v  -1.5180 26.7890 -1.9178
v  0.0000 26.7889 -2.3986
v  0.9107 26.7889 -2.3986
v  1.5180 26.7890 -1.9178
v  2.0162 26.7889 -0.9122
v  2.1712 26.7888 -0.0000
v  2.0162 26.7889 0.9122
v  1.5180 26.7890 1.9178
v  0.9107 26.7889 2.3986
v  0.0000 26.7889 2.3986
v  -0.9107 26.7889 2.3986
v  -1.5180 26.7890 1.9178
v  -2.0162 26.7889 0.9122
v  -2.1712 26.7888 0.0000
v  -2.0162 26.7889 -0.9122
# 138 vertices

vn 0.0001 1.0000 -0.0000
vn -0.0000 1.0000 0.0001
vn 0.0000 1.0000 0.0006
vn 0.0008 1.0000 0.0010
vn 0.0000 -0.7071 0.7071
vn 0.0000 0.7071 0.7071
vn 0.7081 -0.7061 -0.0000
vn 0.7082 -0.7060 -0.0000
vn 0.7082 0.7060 -0.0000
vn 0.0000 -0.7071 -0.7071
vn 0.0000 0.7074 -0.7068
vn -0.7081 -0.7061 -0.0000
vn -0.7082 -0.7060 -0.0000
vn -0.7082 0.7060 -0.0000
vn -0.7101 0.7041 0.0058
vn -0.0000 1.0000 -0.0037
vn -0.0001 1.0000 -0.0033
vn 0.0000 1.0000 -0.0034
vn 0.0008 1.0000 -0.0041
vn 0.0000 1.0000 0.0013
vn -0.0000 1.0000 0.0006
vn -0.0008 1.0000 0.0010
vn 0.0000 -0.8298 -0.5580
vn -0.1341 -0.8823 -0.4511
vn -0.1518 -0.9465 -0.2847
vn 0.0000 -0.9549 -0.2970
vn -0.0000 -1.0000 0.0000
vn 0.0000 -0.8298 0.5580
vn 0.1341 -0.8823 0.4511
vn 0.1518 -0.9465 0.2847
vn 0.0000 -0.9549 0.2970
vn 0.5782 -0.5764 -0.5775
vn 0.5783 0.5756 -0.5781
vn 0.7050 0.7092 0.0050
vn 0.7101 0.7040 0.0058
vn 0.5782 0.5763 0.5775
vn 0.5782 -0.5764 0.5775
vn -0.5782 -0.5764 0.5775
vn -0.5782 0.5763 0.5775
vn -0.7050 0.7092 0.0050
vn -0.5783 0.5756 -0.5781
vn -0.5782 -0.5764 -0.5775
vn -0.0024 1.0000 0.0000
vn -0.0020 1.0000 0.0000
vn -0.0001 1.0000 -0.0000
vn 0.0020 1.0000 0.0000
vn 0.0024 1.0000 0.0000
vn 0.4340 -0.9009 0.0000
vn 0.4218 -0.8911 0.1675
vn 0.3240 -0.9461 0.0000
vn 0.3176 -0.9457 0.0690
vn -0.4218 -0.8911 0.1675
vn -0.4340 -0.9009 -0.0000
vn -0.3176 -0.9457 0.0690
vn -0.3240 -0.9461 0.0000
vn 0.0012 -0.7075 0.7067
vn 0.0011 0.7075 0.7067
vn -0.0011 0.7075 0.7067
vn -0.0012 -0.7075 0.7067
vn -0.0012 -0.7075 -0.7067
vn -0.0011 0.7077 -0.7065
vn 0.0011 0.7077 -0.7065
vn 0.0012 -0.7075 -0.7067
vn 0.0001 1.0000 -0.0028
vn 0.0001 1.0000 -0.0033
vn -0.0001 1.0000 -0.0028
vn -0.0020 1.0000 -0.0033
vn -0.0008 1.0000 -0.0041
vn 0.0020 1.0000 -0.0033
vn 0.0016 1.0000 0.0000
vn -0.0016 1.0000 0.0000
vn 0.3320 -0.8868 -0.3214
vn 0.1341 -0.8823 -0.4511
vn -0.3320 -0.8868 -0.3214
vn 0.4218 -0.8911 -0.1675
vn 0.1518 -0.9465 -0.2847
vn 0.2319 -0.9653 -0.1198
vn 0.3176 -0.9457 -0.0690
vn -0.4218 -0.8911 -0.1675
vn -0.3176 -0.9457 -0.0690
vn -0.2319 -0.9653 -0.1198
vn -0.3320 -0.8868 0.3214
vn -0.1341 -0.8823 0.4511
vn 0.3320 -0.8868 0.3214
vn -0.1518 -0.9465 0.2847
vn -0.2319 -0.9653 0.1198
vn 0.2319 -0.9653 0.1198
vn -0.2376 -0.5659 -0.7895
vn -0.5755 -0.6097 -0.5450
vn -0.0000 -0.5597 -0.8287
vn 0.2376 -0.5659 -0.7895
vn 0.5755 -0.6097 -0.5450
vn 0.7101 -0.6497 -0.2713
vn 0.7486 -0.6630 0.0000
vn 0.7101 -0.6497 0.2713
vn 0.5755 -0.6097 0.5450
vn 0.2376 -0.5659 0.7895
vn 0.0000 -0.5597 0.8287
vn -0.2376 -0.5659 0.7895
vn -0.5755 -0.6097 0.5450
vn -0.7101 -0.6497 0.2713
vn -0.7486 -0.6630 -0.0000
vn -0.7101 -0.6497 -0.2713
vn -0.1865 -0.8190 -0.5426
vn -0.4323 -0.8298 -0.3529
vn -0.0000 -0.8212 -0.5707
vn 0.1865 -0.8190 -0.5426
vn 0.4323 -0.8298 -0.3529
vn 0.5058 -0.8466 -0.1655
vn 0.5246 -0.8514 0.0000
vn 0.5058 -0.8466 0.1655
vn 0.4323 -0.8298 0.3529
vn 0.1865 -0.8190 0.5426
vn 0.0000 -0.8212 0.5707
vn -0.1865 -0.8190 0.5426
vn -0.4323 -0.8298 0.3529
vn -0.5058 -0.8466 0.1655
vn -0.5246 -0.8514 0.0000
vn -0.5058 -0.8466 -0.1655
# 119 vertex normals

vt 0.2550 0.7704 0.0000
vt 0.2288 0.7712 0.0000
vt 0.2278 0.7427 0.0000
vt 0.2541 0.7419 0.0000
vt 0.7150 0.3155 0.0000
vt 0.7151 0.2937 0.0000
vt 0.7250 0.2937 0.0000
vt 0.7248 0.3200 0.0000
vt 0.7789 0.3199 0.0000
vt 0.7797 0.2981 0.0000
vt 0.7886 0.2984 0.0000
vt 0.7875 0.3269 0.0000
vt 0.7611 0.3183 0.0000
vt 0.7612 0.2965 0.0000
vt 0.7711 0.2966 0.0000
vt 0.7710 0.3229 0.0000
vt 0.7394 0.3170 0.0000
vt 0.7396 0.2952 0.0000
vt 0.7484 0.2952 0.0000
vt 0.7482 0.3216 0.0000
vt 0.2625 0.9907 0.0000
vt 0.2362 0.9915 0.0000
vt 0.2304 0.8212 0.0000
vt 0.2567 0.8203 0.0000
vt 0.2296 0.7976 0.0000
vt 0.2559 0.7967 0.0000
vt 0.1950 0.5518 0.0000
vt 0.2213 0.5509 0.0000
vt 0.2273 0.7275 0.0000
vt 0.2010 0.7284 0.0000
vt 0.2015 0.7437 0.0000
vt 0.2347 0.4902 0.0000
vt 0.2136 0.4844 0.0000
vt 0.2627 0.3052 0.0000
vt 0.2754 0.3087 0.0000
vt 0.7558 0.7255 0.0000
vt 0.7584 0.7290 0.0000
vt 0.7513 0.7340 0.0000
vt 0.3089 0.0534 0.0000
vt 0.3300 0.0592 0.0000
vt 0.2809 0.2384 0.0000
vt 0.2682 0.2349 0.0000
vt 0.7468 0.7425 0.0000
vt 0.7443 0.7390 0.0000
vt 0.7813 0.2545 0.0000
vt 0.7875 0.0778 0.0000
vt 0.7963 0.0781 0.0000
vt 0.7907 0.2485 0.0000
vt 0.7805 0.2763 0.0000
vt 0.7895 0.2721 0.0000
vt 0.7869 0.3421 0.0000
vt 0.7802 0.5187 0.0000
vt 0.7714 0.5183 0.0000
vt 0.7781 0.3417 0.0000
vt 0.7400 0.2515 0.0000
vt 0.7414 0.0747 0.0000
vt 0.7502 0.0748 0.0000
vt 0.7488 0.2515 0.0000
vt 0.7398 0.2734 0.0000
vt 0.7487 0.2668 0.0000
vt 0.7484 0.3452 0.0000
vt 0.7465 0.5157 0.0000
vt 0.7377 0.5156 0.0000
vt 0.7393 0.3388 0.0000
vt 0.1787 0.7729 0.0000
vt 0.0085 0.7787 0.0000
vt 0.0075 0.7502 0.0000
vt 0.1777 0.7445 0.0000
vt 0.2025 0.7721 0.0000
vt 0.2779 0.7411 0.0000
vt 0.4481 0.7353 0.0000
vt 0.4491 0.7638 0.0000
vt 0.2788 0.7695 0.0000
vt 0.2358 0.2619 0.0000
vt 0.0592 0.2136 0.0000
vt 0.0649 0.1926 0.0000
vt 0.2419 0.2500 0.0000
vt 0.7552 0.7395 0.0000
vt 0.7523 0.7410 0.0000
vt 0.3086 0.2682 0.0000
vt 0.4902 0.3089 0.0000
vt 0.4844 0.3300 0.0000
vt 0.3078 0.2817 0.0000
vt 0.7450 0.7307 0.0000
vt 0.7474 0.7285 0.0000
vt 0.7154 0.2500 0.0000
vt 0.7172 0.0732 0.0000
vt 0.7260 0.0733 0.0000
vt 0.7254 0.2436 0.0000
vt 0.7153 0.2718 0.0000
vt 0.7252 0.2674 0.0000
vt 0.7247 0.3438 0.0000
vt 0.7230 0.5141 0.0000
vt 0.7142 0.5141 0.0000
vt 0.7148 0.3373 0.0000
vt 0.7615 0.2529 0.0000
vt 0.7634 0.0761 0.0000
vt 0.7722 0.0762 0.0000
vt 0.7715 0.2465 0.0000
vt 0.7614 0.2747 0.0000
vt 0.7713 0.2703 0.0000
vt 0.7708 0.3467 0.0000
vt 0.7691 0.5170 0.0000
vt 0.7603 0.5170 0.0000
vt 0.7609 0.3402 0.0000
vt 0.1861 0.9932 0.0000
vt 0.0159 0.9990 0.0000
vt 0.0101 0.8286 0.0000
vt 0.1804 0.8229 0.0000
vt 0.2099 0.9924 0.0000
vt 0.2042 0.8221 0.0000
vt 0.2805 0.8195 0.0000
vt 0.4507 0.8137 0.0000
vt 0.4565 0.9841 0.0000
vt 0.2863 0.9899 0.0000
vt 0.0093 0.8050 0.0000
vt 0.1796 0.7992 0.0000
vt 0.2034 0.7985 0.0000
vt 0.2797 0.7959 0.0000
vt 0.4500 0.7901 0.0000
vt 0.2714 0.5492 0.0000
vt 0.4416 0.5435 0.0000
vt 0.4476 0.7201 0.0000
vt 0.2774 0.7259 0.0000
vt 0.2476 0.5500 0.0000
vt 0.2536 0.7266 0.0000
vt 0.1772 0.7292 0.0000
vt 0.0070 0.7350 0.0000
vt 0.0010 0.5584 0.0000
vt 0.1712 0.5526 0.0000
vt 0.1715 0.4729 0.0000
vt 0.0010 0.4262 0.0000
vt 0.0477 0.2557 0.0000
vt 0.2394 0.2902 0.0000
vt 0.1926 0.4786 0.0000
vt 0.2500 0.3017 0.0000
vt 0.2902 0.3041 0.0000
vt 0.4729 0.3720 0.0000
vt 0.4262 0.5426 0.0000
vt 0.2557 0.4959 0.0000
vt 0.0534 0.2347 0.0000
vt 0.2350 0.2754 0.0000
vt 0.7608 0.7325 0.0000
vt 0.7607 0.7328 0.0000
vt 0.7576 0.7373 0.0000
vt 0.3016 0.2936 0.0000
vt 0.4787 0.3510 0.0000
vt 0.7503 0.7270 0.0000
vt 0.7556 0.7255 0.0000
vt 0.3721 0.0707 0.0000
vt 0.5426 0.1174 0.0000
vt 0.4959 0.2879 0.0000
vt 0.3041 0.2533 0.0000
vt 0.3510 0.0649 0.0000
vt 0.2936 0.2419 0.0000
vt 0.2533 0.2394 0.0000
vt 0.0707 0.1715 0.0000
vt 0.1174 0.0010 0.0000
vt 0.2879 0.0477 0.0000
vt 0.7418 0.7355 0.0000
vt 0.7419 0.7352 0.0000
vt 0.7470 0.7425 0.0000
vt 0.7593 0.6894 0.0000
vt 0.7769 0.6966 0.0000
vt 0.7712 0.7053 0.0000
vt 0.7584 0.7002 0.0000
vt 0.7876 0.7088 0.0000
vt 0.7790 0.7148 0.0000
vt 0.7954 0.7233 0.0000
vt 0.7852 0.7255 0.0000
vt 0.7960 0.7424 0.0000
vt 0.7855 0.7392 0.0000
vt 0.7885 0.7597 0.0000
vt 0.7796 0.7527 0.0000
vt 0.7770 0.7714 0.0000
vt 0.7707 0.7619 0.0000
vt 0.7621 0.7778 0.0000
vt 0.7590 0.7670 0.0000
vt 0.7433 0.7786 0.0000
vt 0.7442 0.7678 0.0000
vt 0.7257 0.7714 0.0000
vt 0.7315 0.7627 0.0000
vt 0.7150 0.7592 0.0000
vt 0.7236 0.7532 0.0000
vt 0.7072 0.7447 0.0000
vt 0.7175 0.7425 0.0000
vt 0.7067 0.7256 0.0000
vt 0.7171 0.7288 0.0000
vt 0.7142 0.7083 0.0000
vt 0.7231 0.7153 0.0000
vt 0.7256 0.6966 0.0000
vt 0.7320 0.7061 0.0000
vt 0.7406 0.6902 0.0000
vt 0.7436 0.7010 0.0000
vt 0.7636 0.7158 0.0000
vt 0.7572 0.7137 0.0000
vt 0.7685 0.7220 0.0000
vt 0.7727 0.7286 0.0000
vt 0.7725 0.7354 0.0000
vt 0.7681 0.7441 0.0000
vt 0.7624 0.7498 0.0000
vt 0.7551 0.7532 0.0000
vt 0.7454 0.7543 0.0000
vt 0.7390 0.7522 0.0000
vt 0.7341 0.7460 0.0000
vt 0.7300 0.7394 0.0000
vt 0.7302 0.7326 0.0000
vt 0.7345 0.7239 0.0000
vt 0.7402 0.7182 0.0000
vt 0.7475 0.7148 0.0000
# 210 texture coords

o Box015
g Box015
usemtl wire_225143087
s 2
f 1/1/1 2/2/2 3/3/3 4/4/4 
s 8
f 5/5/5 6/6/5 7/7/6 8/8/6 
s 16
f 9/9/7 10/10/8 11/11/9 12/12/9 
s 32
f 13/13/10 14/14/10 15/15/11 16/16/11 
s 64
f 17/17/12 18/18/13 19/19/14 20/20/15 
s 2
f 16/21/11 15/22/11 21/23/16 22/24/17 
f 22/24/17 21/23/16 23/25/18 24/26/19 
f 24/26/19 23/25/18 2/2/2 1/1/1 
f 8/27/6 7/28/6 25/29/20 26/30/21 
f 26/30/21 25/29/20 3/3/3 27/31/22 
s 4
f 28/32/10 14/33/10 29/34/23 30/35/24 
f 31/36/25 32/37/26 33/38/27 
f 34/39/5 6/40/5 35/41/28 36/42/29 
f 37/43/30 38/44/31 33/38/27 
s 16
f 39/45/7 40/46/32 41/47/33 42/48/34 
f 43/49/7 39/45/7 42/48/34 44/50/35 
f 10/10/8 43/49/7 44/50/35 11/11/9 
f 45/51/9 46/52/36 47/53/37 48/54/7 
f 12/12/9 45/51/9 48/54/7 9/9/7 
s 64
f 49/55/12 50/56/38 51/57/39 52/58/14 
f 53/59/12 49/55/12 52/58/14 54/60/14 
f 18/18/13 53/59/12 54/60/14 19/19/14 
f 55/61/40 56/62/41 57/63/42 58/64/12 
f 20/20/15 55/61/40 58/64/12 17/17/12 
s 2
f 59/65/43 19/66/14 54/67/14 60/68/44 
f 61/69/45 59/65/43 60/68/44 27/31/22 
f 2/2/2 61/69/45 27/31/22 3/3/3 
f 62/70/46 12/71/9 11/72/9 63/73/47 
f 4/4/4 62/70/46 63/73/47 1/1/1 
s 4
f 64/74/48 10/75/8 9/76/7 65/77/49 
f 66/78/50 67/79/51 33/38/27 
f 68/80/52 53/81/12 18/82/13 69/83/53 
f 33/38/27 70/84/54 71/85/55 
s 8
f 72/86/56 47/87/37 46/88/36 73/89/57 
f 34/90/5 72/86/56 73/89/57 74/91/6 
f 6/6/5 34/90/5 74/91/6 7/7/6 
f 75/92/58 51/93/39 50/94/38 76/95/59 
f 8/8/6 75/92/58 76/95/59 5/5/5 
s 32
f 77/96/60 57/97/42 56/98/41 78/99/61 
f 28/100/10 77/96/60 78/99/61 79/101/11 
f 14/14/10 28/100/10 79/101/11 15/15/11 
f 80/102/62 41/103/33 40/104/32 81/105/63 
f 16/16/11 80/102/62 81/105/63 13/13/10 
s 2
f 78/106/61 56/107/41 55/108/40 82/109/64 
f 79/110/11 78/106/61 82/109/64 83/111/65 
f 15/22/11 79/110/11 83/111/65 21/23/16 
f 84/112/66 42/113/34 41/114/33 80/115/62 
f 22/24/17 84/112/66 80/115/62 16/21/11 
f 82/109/64 55/108/40 20/116/15 85/117/67 
f 83/111/65 82/109/64 85/117/67 86/118/68 
f 21/23/16 83/111/65 86/118/68 23/25/18 
f 87/119/69 44/120/35 42/113/34 84/112/66 
f 24/26/19 87/119/69 84/112/66 22/24/17 
f 85/117/67 20/116/15 19/66/14 59/65/43 
f 86/118/68 85/117/67 59/65/43 61/69/45 
f 23/25/18 86/118/68 61/69/45 2/2/2 
f 63/73/47 11/72/9 44/120/35 87/119/69 
f 1/1/1 63/73/47 87/119/69 24/26/19 
f 73/121/57 46/122/36 45/123/9 88/124/70 
f 74/125/6 73/121/57 88/124/70 89/126/3 
f 7/28/6 74/125/6 89/126/3 25/29/20 
f 90/127/71 52/128/14 51/129/39 75/130/58 
f 26/30/21 90/127/71 75/130/58 8/27/6 
f 88/124/70 45/123/9 12/71/9 62/70/46 
f 89/126/3 88/124/70 62/70/46 4/4/4 
f 25/29/20 89/126/3 4/4/4 3/3/3 
f 60/68/44 54/67/14 52/128/14 90/127/71 
f 27/31/22 60/68/44 90/127/71 26/30/21 
s 4
f 81/131/63 40/132/32 39/133/7 91/134/72 
f 13/135/10 81/131/63 91/134/72 92/136/73 
f 14/33/10 13/135/10 92/136/73 29/34/23 
f 93/137/74 58/138/12 57/139/42 77/140/60 
f 30/35/24 93/137/74 77/140/60 28/32/10 
f 91/134/72 39/133/7 43/141/7 94/142/75 
f 95/143/76 96/144/77 97/145/78 33/38/27 
f 32/37/26 95/143/76 33/38/27 
f 98/146/79 17/147/12 58/138/12 93/137/74 
f 33/38/27 99/148/80 100/149/81 31/36/25 
f 94/142/75 43/141/7 10/75/8 64/74/48 
f 33/38/27 97/145/78 66/78/50 
f 69/83/53 18/82/13 17/147/12 98/146/79 
f 71/85/55 99/148/80 33/38/27 
f 76/150/59 50/151/38 49/152/12 101/153/82 
f 5/154/5 76/150/59 101/153/82 102/155/83 
f 6/40/5 5/154/5 102/155/83 35/41/28 
f 103/156/84 48/157/7 47/158/37 72/159/56 
f 36/42/29 103/156/84 72/159/56 34/39/5 
f 101/153/82 49/152/12 53/81/12 68/80/52 
f 104/160/85 105/161/86 70/84/54 33/38/27 
f 38/44/31 104/160/85 33/38/27 
f 65/77/49 9/76/7 48/157/7 103/156/84 
f 33/38/27 67/79/51 106/162/87 37/43/30 
s off
f 93/163/74 30/164/24 107/165/88 108/166/89 
f 30/164/24 29/167/23 109/168/90 107/165/88 
f 29/167/23 92/169/73 110/170/91 109/168/90 
f 92/169/73 91/171/72 111/172/92 110/170/91 
f 91/171/72 94/173/75 112/174/93 111/172/92 
f 94/173/75 64/175/48 113/176/94 112/174/93 
f 64/175/48 65/177/49 114/178/95 113/176/94 
f 65/177/49 103/179/84 115/180/96 114/178/95 
f 103/179/84 36/181/29 116/182/97 115/180/96 
f 36/181/29 35/183/28 117/184/98 116/182/97 
f 35/183/28 102/185/83 118/186/99 117/184/98 
f 102/185/83 101/187/82 119/188/100 118/186/99 
f 101/187/82 68/189/52 120/190/101 119/188/100 
f 68/189/52 69/191/53 121/192/102 120/190/101 
f 69/191/53 98/193/79 122/194/103 121/192/102 
f 98/193/79 93/163/74 108/166/89 122/194/103 
f 108/166/89 107/165/88 123/195/104 124/196/105 
f 107/165/88 109/168/90 125/197/106 123/195/104 
f 109/168/90 110/170/91 126/198/107 125/197/106 
f 110/170/91 111/172/92 127/199/108 126/198/107 
f 111/172/92 112/174/93 128/200/109 127/199/108 
f 112/174/93 113/176/94 129/201/110 128/200/109 
f 113/176/94 114/178/95 130/202/111 129/201/110 
f 114/178/95 115/180/96 131/203/112 130/202/111 
f 115/180/96 116/182/97 132/204/113 131/203/112 
f 116/182/97 117/184/98 133/205/114 132/204/113 
f 117/184/98 118/186/99 134/206/115 133/205/114 
f 118/186/99 119/188/100 135/207/116 134/206/115 
f 119/188/100 120/190/101 136/208/117 135/207/116 
f 120/190/101 121/192/102 137/209/118 136/208/117 
f 121/192/102 122/194/103 138/210/119 137/209/118 
f 122/194/103 108/166/89 124/196/105 138/210/119 
f 124/196/105 123/195/104 31/36/25 100/149/81 
f 123/195/104 125/197/106 32/37/26 31/36/25 
f 125/197/106 126/198/107 95/143/76 32/37/26 
f 126/198/107 127/199/108 96/144/77 95/143/76 
f 127/199/108 128/200/109 97/145/78 96/144/77 
f 128/200/109 129/201/110 66/78/50 97/145/78 
f 129/201/110 130/202/111 67/79/51 66/78/50 
f 130/202/111 131/203/112 106/162/87 67/79/51 
f 131/203/112 132/204/113 37/43/30 106/162/87 
f 132/204/113 133/205/114 38/44/31 37/43/30 
f 133/205/114 134/206/115 104/160/85 38/44/31 
f 134/206/115 135/207/116 105/161/86 104/160/85 
f 135/207/116 136/208/117 70/84/54 105/161/86 
f 136/208/117 137/209/118 71/85/55 70/84/54 
f 137/209/118 138/210/119 99/148/80 71/85/55 
f 138/210/119 124/196/105 100/149/81 99/148/80 
# 132 polygons - 8 triangles

